<?xml version="1.0" encoding="utf-8"?>
<!-- Generator: Adobe Illustrator 16.0.0, SVG Export Plug-In . SVG Version: 6.00 Build 0)  -->
<!DOCTYPE svg PUBLIC "-//W3C//DTD SVG 1.1//EN" "http://www.w3.org/Graphics/SVG/1.1/DTD/svg11.dtd">
<svg version="1.1" id="Camada_1" xmlns="http://www.w3.org/2000/svg" xmlns:xlink="http://www.w3.org/1999/xlink" x="0px" y="0px"
	 width="480px" height="768px" viewBox="0 0 480 768" enable-background="new 0 0 480 768" xml:space="preserve">
<g id="Camada_2">
	<rect x="0.268" y="0" fill="#FFFFFF" width="479.445" height="768.23"/>
</g>
<g id="Camada_1_1_">
	<g>
		
			<linearGradient id="SVGID_1_" gradientUnits="userSpaceOnUse" x1="402.1614" y1="624.9343" x2="331.2989" y2="564.6219" gradientTransform="matrix(1 0 0 -1 -57.6001 732.0991)">
			<stop  offset="0" style="stop-color:#8F4B8E"/>
			<stop  offset="1" style="stop-color:#514B92"/>
		</linearGradient>
		<path fill="url(#SVGID_1_)" d="M261.6,169.896l-2.715-2.563l0,0l0,0l-1.305-1.232l0,0l0,0l-9.106-8.598
			c-1.438,1.057-3.215,1.682-5.137,1.682c-4.792,0-8.678-3.886-8.678-8.681c0-4.792,3.886-8.679,8.678-8.679
			c0.57,0,1.127,0.057,1.667,0.161l7.062-17.966l0,0l0,0l3.616-9.197c-2.464-1.532-4.104-4.263-4.104-7.377
			c0-4.794,3.888-8.682,8.684-8.682c3.007,0,5.656,1.53,7.216,3.855l45.583-19.771c-0.047-0.357-0.068-0.721-0.068-1.088
			c0-4.806,3.896-8.701,8.702-8.701c4.807,0,8.699,3.896,8.699,8.701c0,0.503-0.041,0.995-0.125,1.476l47.733,19.408
			c0.958-1.165,2.412-1.907,4.041-1.907c2.89,0,5.234,2.343,5.234,5.234c0,1.925-1.04,3.606-2.588,4.516l4.748,20.61
			c2.71,0.207,4.844,2.47,4.844,5.232c0,2.898-2.349,5.248-5.249,5.248c-0.974,0-1.886-0.266-2.667-0.727l-8.212,7.399l0,0l0,0
			l-12.477,11.246l0,0l0,0l-1.648,1.484c0.309,0.671,0.481,1.419,0.481,2.208c0,2.914-2.364,5.274-5.276,5.274
			c-2.081,0-3.88-1.202-4.74-2.953l-15.589,2.4l0,0l-0.94,0.146l0,0l0,0l-30.941,4.767c-0.131,4.677-3.965,8.429-8.676,8.429
			c-2.13,0-4.081-0.768-5.592-2.042l-37.927,27.78l-1.545-0.097l-0.704-1.13l12.844-28.368c-2.479-0.426-4.36-2.583-4.36-5.183
			C261.063,171.382,261.255,170.595,261.6,169.896L261.6,169.896z M331.781,179.157c-1.712,0-3.094,1.384-3.094,3.094
			c0,1.707,1.382,3.093,3.094,3.093c1.706,0,3.091-1.386,3.091-3.093C334.871,180.541,333.487,179.157,331.781,179.157
			L331.781,179.157z M327.367,88.36c-0.213,0.182-0.434,0.353-0.662,0.514l13.136,28.5c0.688-0.176,1.41-0.27,2.149-0.27
			c4.789,0,8.666,3.882,8.666,8.669c0,0.117-0.002,0.232-0.005,0.35l32.218,7.228l-8.198-6.645l0,0l0,0l-9.575-7.763l0,0l0,0
			l-6.894-5.586l0,0l0,0l-9.574-7.763l0,0h-0.003l-6.891-5.587l0,0l0,0l-2.686-2.176l0,0l0,0l-6.892-5.586l0,0l0,0L327.367,88.36
			L327.367,88.36z M323.865,90.19c-0.695,0.179-1.423,0.272-2.171,0.272c-2.321,0-4.425-0.906-5.982-2.386l-23.963,21.36l0,0v0.001
			l-3.112,2.774l45.371,10.177c0.637-1.498,1.68-2.777,2.99-3.704l-10.279-22.307v0.001l0,0L323.865,90.19L323.865,90.19z
			 M321.694,76.319c-3.007,0-5.445,2.437-5.445,5.443c0,3.006,2.438,5.442,5.445,5.442c3.004,0,5.442-2.437,5.442-5.442
			C327.137,78.756,324.698,76.319,321.694,76.319L321.694,76.319z M268.719,105.487c0.146,0.63,0.222,1.286,0.222,1.96
			c0,0.117-0.003,0.233-0.007,0.35l15.94,3.574l4.771-4.254l6.021-5.368l0,0l0,0l6.021-5.369l0,0l0,0l6.021-5.368l0,0l0,0
			l5.32-4.744l-3.578,1.552l0,0l-6.021,2.612l0,0l0,0L268.719,105.487L268.719,105.487z M268.248,110.849
			c-0.524,1.232-1.33,2.319-2.33,3.181l5.473,9.36l10.611-9.457l-4.835-1.084l0,0h-0.001l-4.207-0.944l0,0L268.248,110.849
			L268.248,110.849z M263.219,115.61c-0.924,0.335-1.919,0.519-2.957,0.519c-0.57,0-1.126-0.055-1.664-0.16l-3.195,8.126l0,0l0,0
			l-5.876,14.943l0,0l0,0l-1.607,4.093c0.258,0.161,0.508,0.335,0.746,0.521l10.221-9.11l9.358-8.344l0,0l0,0l0.768-0.685
			l-4.395-7.515l0,0l0,0L263.219,115.61L263.219,115.61z M260.262,102.004c-3.007,0-5.444,2.438-5.444,5.443
			c0,3.005,2.438,5.443,5.444,5.443c3.004,0,5.44-2.438,5.44-5.443C265.702,104.44,263.266,102.004,260.262,102.004L260.262,102.004
			z M349.967,129.177c-0.638,1.487-1.681,2.764-2.985,3.687l5.854,12.704l0,0l0,0l5.709,12.391c0.229-0.029,0.457-0.045,0.69-0.045
			c0.985,0,1.91,0.271,2.696,0.742l8.969-8.083l0,0l0,0l13.366-12.047c-0.247-0.542-0.411-1.135-0.462-1.759l-17.04-3.822l0,0l0,0
			L359,131.203l0,0l0,0l-7.761-1.74v-0.001h-0.003L349.967,129.177L349.967,129.177z M344.135,134.175
			c-0.687,0.174-1.403,0.268-2.145,0.268c-1.718,0-3.316-0.499-4.667-1.36l-23.086,24.748l0,0l0,0l-8.925,9.567
			c0.522,0.703,0.941,1.487,1.235,2.329l47.467-7.313c0.182-1.242,0.797-2.341,1.687-3.145l-1.196-2.601v-0.001l0,0l-8.128-17.629
			l0,0l0,0L344.135,134.175L344.135,134.175z M335.035,130.949c-1.074-1.445-1.712-3.235-1.712-5.175c0-0.111,0-0.22,0.005-0.33
			l-1.17-0.263l0,0h-0.002l-7.761-1.74v-0.001h-0.003l-11.968-2.685l0,0l0,0l-7.764-1.74l0,0h-0.003l-18.896-4.238l-5.405,4.818l0,0
			l0,0l-6.021,5.368l0,0l0,0l-1.333,1.188l2.782,4.761l0,0l0,0l19.593,33.502c0.926-0.336,1.924-0.521,2.966-0.521
			c1.723,0,3.328,0.503,4.681,1.368l21.078-22.598l0,0l0,0L335.035,130.949L335.035,130.949z M341.99,120.33
			c-3.007,0-5.441,2.438-5.441,5.444s2.436,5.441,5.441,5.441s5.441-2.436,5.441-5.441
			C347.433,122.768,344.997,120.33,341.99,120.33L341.99,120.33z M250.751,145.99c0.804,1.316,1.267,2.861,1.267,4.514
			c0,0.592-0.06,1.168-0.173,1.727l39.161,15.716c0.46-0.73,1.028-1.387,1.679-1.948l-19.072-32.619l0,0l0,0l-2.985-5.106
			L250.751,145.99L250.751,145.99z M250.681,155.135c-0.021,0.03-0.04,0.063-0.061,0.092l13.137,12.396
			c0.758-0.424,1.631-0.666,2.563-0.666c2.904,0,5.259,2.354,5.259,5.257c0,1.794-0.898,3.378-2.271,4.327l-10.648,23.6
			l32.107-23.34c-0.7-1.25-1.097-2.691-1.097-4.226c0-0.591,0.06-1.167,0.168-1.725l-12.02-4.825l0,0l0,0l-11.026-4.425l0,0l0,0
			l-11.027-4.426l0,0L250.681,155.135L250.681,155.135z M243.337,145.063c-3.005,0-5.441,2.437-5.441,5.44
			c0,3.008,2.437,5.444,5.441,5.444c3.007,0,5.443-2.437,5.443-5.444C248.781,147.5,246.344,145.063,243.337,145.063
			L243.337,145.063z M298.347,167.092c-3.025,0-5.482,2.455-5.482,5.483s2.457,5.482,5.482,5.482c2.128,0,3.974-1.212,4.882-2.983
			l0.006-0.012c0.018-0.031,0.032-0.063,0.046-0.096l0.021-0.038c0.014-0.022,0.021-0.043,0.031-0.066
			c0.012-0.022,0.021-0.045,0.03-0.07l0.018-0.037c0.016-0.032,0.028-0.066,0.043-0.102l0.003-0.006
			c0.261-0.64,0.404-1.338,0.404-2.072c0-1.516-0.614-2.888-1.607-3.879c-0.541-0.54-1.191-0.969-1.921-1.246l-0.021-0.01
			c-0.026-0.01-0.055-0.02-0.079-0.029c-0.023-0.009-0.049-0.016-0.072-0.024l-0.03-0.01
			C299.547,167.19,298.959,167.092,298.347,167.092L298.347,167.092z M384.78,154.334c-1.709,0-3.094,1.387-3.094,3.095
			c0,1.707,1.385,3.093,3.094,3.093s3.091-1.386,3.091-3.093C387.87,155.72,386.489,154.334,384.78,154.334L384.78,154.334z
			 M386.127,131.962c0.085-0.056,0.172-0.108,0.259-0.163l-1.774-7.704v-0.001l0,0l-0.218-0.943l0,0l-2.754-11.959
			c-2.702-0.206-4.83-2.463-4.83-5.218c0-0.143,0.006-0.283,0.014-0.422l-8.101-3.295l0,0l0,0l-6.603-2.684v-0.001l0,0l-6.601-2.684
			l0,0h-0.003l-6.599-2.685v-0.001h-0.003l-6.603-2.684l0,0l0,0l-6.602-2.686l0,0l0,0l-5.605-2.277l39.777,32.24l0,0l0,0
			L386.127,131.962L386.127,131.962z M362.521,79.444c-1.651,0-2.99,1.337-2.99,2.986s1.339,2.986,2.99,2.986
			c1.646,0,2.985-1.337,2.985-2.986C365.507,80.781,364.168,79.444,362.521,79.444L362.521,79.444z M286.505,74.417
			c-2.83,0-5.125,2.294-5.125,5.124c0,2.829,2.295,5.122,5.125,5.122c2.827,0,5.121-2.293,5.121-5.122
			C291.626,76.71,289.332,74.417,286.505,74.417L286.505,74.417z M232.695,115.455c-2.882,0-5.217,2.335-5.217,5.217
			c0,2.881,2.335,5.217,5.217,5.217s5.218-2.335,5.218-5.217C237.912,117.791,235.576,115.455,232.695,115.455L232.695,115.455z
			 M302.508,131.089c-2.909,0-5.27,2.359-5.27,5.271c0,2.91,2.359,5.27,5.27,5.27c2.911,0,5.271-2.358,5.271-5.27
			C307.778,133.448,305.419,131.089,302.508,131.089L302.508,131.089z M336.633,147.958c-1.718,0-3.107,1.394-3.107,3.109
			s1.391,3.108,3.107,3.108c1.716,0,3.109-1.393,3.109-3.108S338.35,147.958,336.633,147.958z"/>
		<g>
			<g>
				<path fill="#514B92" d="M193.619,170.232c-0.685-0.27-1.459,0.064-1.73,0.752l-17.112,43.417
					c-0.946,0.261-1.646,1.12-1.646,2.147c0,1.233,1.002,2.235,2.235,2.235c1.232,0,2.234-1.002,2.234-2.235
					c0-0.431-0.129-0.828-0.339-1.17l17.111-43.416C194.644,171.278,194.306,170.502,193.619,170.232z"/>
				<path fill="#514B92" d="M222.907,214.422l-17.527-43.487c-0.276-0.685-1.054-1.013-1.738-0.739
					c-0.685,0.276-1.016,1.054-0.739,1.737l17.487,43.389c-0.232,0.353-0.37,0.775-0.37,1.228c0,1.233,1.002,2.235,2.235,2.235
					c1.231,0,2.235-1.002,2.235-2.235C224.49,215.545,223.82,214.704,222.907,214.422z"/>
				<path fill="#8F4B8E" d="M197.412,194.434l1.272-3.616l2.066,5.733l-4.091,0.015L197.412,194.434L197.412,194.434z
					 M194.772,199.242h0.005l7.877-0.028c0.435-0.002,0.84-0.214,1.088-0.568c0.25-0.355,0.311-0.811,0.162-1.219l-3.978-11.039
					c-0.192-0.528-0.694-0.884-1.257-0.884h-0.006c-0.563,0.002-1.066,0.359-1.253,0.893l-3.898,11.066
					c-0.143,0.409-0.08,0.864,0.171,1.217C193.936,199.034,194.341,199.242,194.772,199.242z"/>
				<path fill="#8F4B8E" d="M210.037,214.438l-2.169-6.019c-0.191-0.528-0.693-0.882-1.257-0.882h-0.005l-15.72,0.06
					c-0.565,0.001-1.067,0.358-1.254,0.891l-2.093,5.944c-0.896,0.292-1.549,1.126-1.549,2.117c0,1.233,1.003,2.235,2.234,2.235
					c1.232,0,2.236-1.002,2.236-2.235c0-0.467-0.146-0.901-0.393-1.261l1.77-5.025l13.836-0.051l1.826,5.063
					c-0.252,0.363-0.403,0.801-0.403,1.273c0,1.233,1.004,2.235,2.236,2.235c1.231,0,2.234-1.002,2.234-2.235
					C211.569,215.563,210.923,214.733,210.037,214.438z"/>
			</g>
			<g>
				<path fill="#514B92" d="M91.777,196.677c3.288,2.864,7.625,4.441,12.223,4.441h0.075c1.058-0.041,2.121,0.291,2.901,0.815
					c0.607,0.404,0.97,0.901,0.972,1.328c0.004,0.868-1.615,2.162-3.857,2.173h-0.022c-1.276,0-2.418-0.435-3.122-0.996
					c0.079-0.233,0.133-0.478,0.133-0.736c0-1.273-1.035-2.31-2.308-2.31c-1.271,0-2.307,1.035-2.307,2.31
					c0,1.209,0.94,2.194,2.128,2.287c1.207,1.323,3.252,2.198,5.475,2.198h0.033c3.589-0.012,6.612-2.272,6.603-4.936
					c-0.005-1.363-0.806-2.68-2.194-3.608c-1.236-0.826-2.802-1.281-4.413-1.281H104c-3.933,0-7.628-1.333-10.413-3.763
					c-2.75-2.396-4.271-5.57-4.283-8.938c-0.025-7.032,6.554-12.776,14.667-12.806h0.062c7.297,0,13.462,4.743,14.521,10.869
					c-0.465,0.421-0.764,1.024-0.764,1.702c0,1.271,1.035,2.306,2.307,2.306s2.307-1.036,2.307-2.306
					c0-0.829-0.439-1.549-1.096-1.955c-1.184-7.524-8.553-13.374-17.275-13.374h-0.072c-9.631,0.037-17.442,7.021-17.411,15.575
					C86.564,189.844,88.421,193.752,91.777,196.677z"/>
				<path fill="#8F4B8E" d="M116.324,192.207c-3.287-2.865-7.625-4.44-12.224-4.44h-0.095c-2.233,0-3.851-1.277-3.854-2.144
					c-0.003-0.868,1.616-2.164,3.858-2.172h0.02c1.222,0,2.312,0.393,3.018,0.911c-0.093,0.25-0.151,0.518-0.151,0.8
					c0,1.271,1.035,2.308,2.307,2.308c1.271,0,2.307-1.036,2.307-2.308c0-1.171-0.879-2.13-2.01-2.277
					c-1.205-1.317-3.241-2.188-5.47-2.188h-0.03c-3.587,0.013-6.611,2.272-6.603,4.936c0.011,2.654,3.033,4.89,6.609,4.89h0.029
					c3.928-0.036,7.678,1.318,10.479,3.762c2.749,2.396,4.271,5.571,4.282,8.938c0.013,3.367-1.484,6.552-4.216,8.97
					c-2.782,2.461-6.495,3.827-10.45,3.839h-0.063c-7.207,0-13.314-4.639-14.479-10.662c0.442-0.419,0.723-1.009,0.723-1.665
					c0-1.273-1.036-2.31-2.307-2.31c-1.272,0-2.308,1.035-2.308,2.31c0,0.846,0.466,1.583,1.149,1.981
					c1.318,7.389,8.612,13.102,17.221,13.102h0.073c4.625-0.016,8.982-1.626,12.265-4.531c3.334-2.949,5.163-6.874,5.146-11.043
					C121.536,199.039,119.679,195.131,116.324,192.207z"/>
			</g>
			<g>
				<path fill="#514B92" d="M141.839,217.22c0.282,0.902,1.116,1.563,2.11,1.563c1.225,0,2.22-0.996,2.22-2.223
					c0-1.226-0.996-2.221-2.22-2.221c-0.457,0-0.883,0.14-1.235,0.376c-8.268-3.286-13.73-11.199-13.763-20.194
					c-0.034-9.07,5.431-17.047,13.763-20.358c0.353,0.238,0.778,0.379,1.235,0.379c1.225,0,2.22-0.997,2.22-2.222
					c0-1.226-0.996-2.223-2.22-2.223c-0.995,0-1.827,0.66-2.11,1.563c-9.402,3.688-15.579,12.658-15.54,22.87
					C126.337,204.661,132.512,213.56,141.839,217.22z"/>
				<path fill="#8F4B8E" d="M150.843,182.459h0.044c5.244,0,9.844,3.331,11.454,8.301c0.177,0.548,0.687,0.917,1.262,0.917h0.005
					l10.179-0.037l0.034-0.003l0.195-0.02l0.02-0.004l0.138-0.04l0.115-0.037l0.114-0.059l0.114-0.063l0.091-0.073l0.105-0.089
					l0.079-0.093l0.082-0.102l0.063-0.11l0.062-0.113l0.036-0.109l0.042-0.14l0.013-0.1l0.016-0.163l0.002-0.017l-0.013-0.107
					l-0.009-0.123l-0.006-0.03l-0.003-0.013c-1.452-7.962-6.816-14.697-14.188-17.972c-0.252-0.95-1.11-1.656-2.14-1.656
					c-1.225,0-2.221,0.996-2.221,2.221c0,1.226,0.996,2.223,2.221,2.223c0.419,0,0.808-0.124,1.142-0.326
					c6.061,2.722,10.584,8.065,12.237,14.47l-7.597,0.027c-2.214-5.556-7.576-9.214-13.645-9.214h-0.055
					c-3.922,0.016-7.604,1.551-10.368,4.324c-2.765,2.775-4.279,6.455-4.265,10.365c0.029,8.05,6.611,14.579,14.685,14.579h0.057
					c5.652-0.021,10.72-3.235,13.159-8.255l7.772-0.03c-1.928,6.324-6.664,11.466-12.827,13.926
					c-0.354-0.234-0.776-0.374-1.231-0.374c-1.224,0-2.22,0.996-2.22,2.221c0,1.227,0.997,2.223,2.22,2.223
					c0.995,0,1.827-0.66,2.11-1.563c7.544-2.973,13.207-9.522,14.971-17.48l0.001-0.013l0.015-0.118l0.015-0.151v-0.01l-0.009-0.084
					l-0.019-0.167l-0.033-0.116l-0.04-0.127l-0.061-0.119l-0.06-0.106l-0.078-0.103l-0.082-0.098l-0.091-0.079l-0.104-0.086
					l-0.113-0.064l-0.109-0.06l-0.148-0.049l-0.094-0.031l-0.01-0.002l-0.166-0.018l-0.099-0.011l-0.013-0.002h-0.004l-10.354,0.04
					h-0.004c-0.088,0-0.175,0.009-0.26,0.027l-0.159,0.048l-0.085,0.027l-0.142,0.077l-0.084,0.046l-0.109,0.087l-0.09,0.076
					l-0.101,0.12l-0.063,0.077c-0.049,0.072-0.091,0.149-0.125,0.232h-0.001c-1.854,4.498-6.209,7.416-11.091,7.433h-0.045
					c-6.614,0-12.007-5.345-12.032-11.937c-0.013-3.198,1.229-6.211,3.492-8.482C144.609,183.731,147.628,182.472,150.843,182.459z"
					/>
			</g>
			<g>
				<path fill="#514B92" d="M253.816,208.287c-0.729,0-1.371-0.357-1.774-0.902l-4.683-0.033c-0.352,0-0.688-0.143-0.937-0.393
					c-0.247-0.249-0.386-0.586-0.385-0.939l0.079-10.664l-0.079-12.49c-0.001-0.354,0.138-0.69,0.385-0.94
					c0.248-0.248,0.585-0.39,0.937-0.391l4.356-0.034c0.405-0.544,1.048-0.901,1.774-0.901c1.226,0,2.222,0.996,2.222,2.221
					s-0.996,2.222-2.222,2.222c-0.721,0-1.356-0.353-1.765-0.889l-3.03,0.029l0.022,17.524h-0.022v3.001l3.354,0.028
					c0.406-0.535,1.043-0.888,1.766-0.888c1.224,0,2.22,0.997,2.22,2.22C256.035,207.29,255.039,208.287,253.816,208.287z"/>
				<path fill="#514B92" d="M238.121,200.611l-0.003,5.378c-0.001,0.353-0.143,0.688-0.392,0.938
					c-0.249,0.245-0.584,0.385-0.935,0.385h-0.003l-4.639-0.036c-0.396,0.606-1.079,1.011-1.854,1.011
					c-1.227,0-2.221-0.997-2.221-2.221s0.994-2.22,2.221-2.22c0.671,0,1.267,0.306,1.674,0.778l3.502,0.029l0.073-9.856
					l-0.073-10.568l-3.502,0.031c-0.407,0.472-1.003,0.779-1.674,0.779c-1.227,0-2.221-0.997-2.221-2.222s0.994-2.221,2.221-2.221
					c0.775,0,1.46,0.402,1.854,1.011l4.639-0.036h0.003c0.351,0,0.686,0.139,0.935,0.384c0.249,0.25,0.391,0.585,0.392,0.938
					l0.009,17.718L238.121,200.611L238.121,200.611z"/>
				<path fill="#8F4B8E" d="M253.464,174.539c1.224,0,2.219-0.996,2.219-2.221c0-1.224-0.995-2.22-2.219-2.22
					c-0.745,0-1.402,0.372-1.806,0.936l-19.178,0.108c-0.395-0.625-1.085-1.044-1.876-1.044c-1.225,0-2.221,0.997-2.221,2.22
					c0,1.225,0.996,2.221,2.221,2.221c0.654,0,1.239-0.29,1.646-0.744l19.476-0.109
					C252.135,174.202,252.757,174.539,253.464,174.539z"/>
				<path fill="#8F4B8E" d="M253.532,214.344c1.223,0,2.219,0.995,2.219,2.221c0,1.224-0.996,2.22-2.219,2.22
					c-0.746,0-1.401-0.372-1.807-0.936l-19.246-0.107c-0.395,0.625-1.085,1.043-1.876,1.043c-1.225,0-2.221-0.996-2.221-2.22
					c0-1.226,0.996-2.221,2.221-2.221c0.654,0,1.239,0.291,1.646,0.743l19.544,0.11
					C252.201,214.681,252.823,214.344,253.532,214.344z"/>
			</g>
		</g>
	</g>
	
		<linearGradient id="SVGID_2_" gradientUnits="userSpaceOnUse" x1="-82.2366" y1="617.0818" x2="-43.5715" y2="617.0818" gradientTransform="matrix(0 1 1 0 -202.0776 109.5776)">
		<stop  offset="0" style="stop-color:#8F4B8E"/>
		<stop  offset="1" style="stop-color:#514B92"/>
	</linearGradient>
	<path fill="none" stroke="url(#SVGID_2_)" stroke-width="7" stroke-miterlimit="10" d="M430.836,46.675
		c0-8.744-7.088-15.833-15.832-15.833c-8.743,0-15.831,7.089-15.831,15.833c0,8.742,7.088,15.832,15.831,15.832
		C423.748,62.506,430.836,55.417,430.836,46.675L430.836,46.675z"/>
	
		<linearGradient id="SVGID_3_" gradientUnits="userSpaceOnUse" x1="104.0427" y1="618.4539" x2="127.8738" y2="618.4539" gradientTransform="matrix(0 1 1 0 -202.0776 109.5776)">
		<stop  offset="0" style="stop-color:#8F4B8E"/>
		<stop  offset="1" style="stop-color:#514B92"/>
	</linearGradient>
	<path fill="none" stroke="url(#SVGID_3_)" stroke-width="7" stroke-miterlimit="10" d="M424.79,225.537
		c0-4.646-3.769-8.416-8.413-8.416c-4.646,0-8.415,3.769-8.415,8.416c0,4.648,3.769,8.415,8.415,8.415
		C421.022,233.952,424.79,230.185,424.79,225.537L424.79,225.537z"/>
	
		<linearGradient id="SVGID_4_" gradientUnits="userSpaceOnUse" x1="-81.8118" y1="285.4866" x2="-43.9954" y2="285.4866" gradientTransform="matrix(0 1 1 0 -202.0776 109.5776)">
		<stop  offset="0" style="stop-color:#8F4B8E"/>
		<stop  offset="1" style="stop-color:#514B92"/>
	</linearGradient>
	<path fill="none" stroke="url(#SVGID_4_)" stroke-width="7" stroke-miterlimit="10" d="M98.817,46.674
		c0-8.509-6.897-15.407-15.407-15.407s-15.408,6.898-15.408,15.407S74.9,62.083,83.409,62.083S98.817,55.182,98.817,46.674
		L98.817,46.674z"/>
	<g>
		<g>
			<defs>
				<polygon id="SVGID_5_" points="479.713,768.23 479.713,391.121 0.268,219.994 0.268,768.23 				"/>
			</defs>
			<clipPath id="SVGID_6_">
				<use xlink:href="#SVGID_5_"  overflow="visible"/>
			</clipPath>
			<rect x="0.268" y="-31.098" clip-path="url(#SVGID_6_)" fill="#FFFFFF" width="479.445" height="799.329"/>
		</g>
		<g>
			<defs>
				<polygon id="SVGID_7_" points="479.713,768.23 479.713,391.121 0.268,219.994 0.268,768.23 				"/>
			</defs>
			<clipPath id="SVGID_8_">
				<use xlink:href="#SVGID_7_"  overflow="visible"/>
			</clipPath>
			
				<linearGradient id="SVGID_9_" gradientUnits="userSpaceOnUse" x1="728.51" y1="662.0076" x2="143.194" y2="163.835" gradientTransform="matrix(0 1 1 0 -202.0776 109.5776)">
				<stop  offset="0" style="stop-color:#8F4B8E"/>
				<stop  offset="1" style="stop-color:#514B92"/>
			</linearGradient>
			<polygon clip-path="url(#SVGID_8_)" fill="url(#SVGID_9_)" points="479.713,768.23 479.713,391.121 0.268,219.994 0.268,768.23 
							"/>
		</g>
		<g>
			<defs>
				<polygon id="SVGID_10_" points="479.713,768.23 479.713,391.121 0.268,219.994 0.268,768.23 				"/>
			</defs>
			<clipPath id="SVGID_11_">
				<use xlink:href="#SVGID_10_"  overflow="visible"/>
			</clipPath>
			
				<linearGradient id="SVGID_12_" gradientUnits="userSpaceOnUse" x1="573.1604" y1="627.2947" x2="413.5627" y2="491.4582" gradientTransform="matrix(0 1 1 0 -202.0776 109.5776)">
				<stop  offset="0" style="stop-color:#8F4B8E"/>
				<stop  offset="1" style="stop-color:#514B92"/>
			</linearGradient>
			<path clip-path="url(#SVGID_11_)" fill="none" stroke="url(#SVGID_12_)" stroke-width="4" stroke-miterlimit="10" d="
				M308.306,510.453l-14.623,65.222l17.402,19.52l21.966,24.638l21.963,24.637h0.003l21.966,24.637l19.413,21.775l-6.354-14.65
				l-10.688-24.635v-0.002l-61.6-142.017c-2.577,0.595-5.262,0.908-8.019,0.908C309.259,510.484,308.78,510.473,308.306,510.453z"/>
		</g>
		<g>
			<defs>
				<polygon id="SVGID_13_" points="479.713,768.23 479.713,391.121 0.268,219.994 0.268,768.23 				"/>
			</defs>
			<clipPath id="SVGID_14_">
				<use xlink:href="#SVGID_13_"  overflow="visible"/>
			</clipPath>
			
				<linearGradient id="SVGID_15_" gradientUnits="userSpaceOnUse" x1="481.7649" y1="628.9011" x2="453.9895" y2="605.261" gradientTransform="matrix(0 1 1 0 -202.0776 109.5776)">
				<stop  offset="0" style="stop-color:#8F4B8E"/>
				<stop  offset="1" style="stop-color:#514B92"/>
			</linearGradient>
			
				<circle clip-path="url(#SVGID_14_)" fill="none" stroke="url(#SVGID_15_)" stroke-width="4" stroke-miterlimit="10" cx="415.004" cy="577.455" r="16.237"/>
		</g>
		<g>
			<defs>
				<polygon id="SVGID_16_" points="479.713,768.23 479.713,391.121 0.268,219.994 0.268,768.23 				"/>
			</defs>
			<clipPath id="SVGID_17_">
				<use xlink:href="#SVGID_16_"  overflow="visible"/>
			</clipPath>
			
				<linearGradient id="SVGID_18_" gradientUnits="userSpaceOnUse" x1="343.7561" y1="148.3733" x2="185.9119" y2="14.0294" gradientTransform="matrix(1 0 0 -1 -57.6001 732.0991)">
				<stop  offset="0" style="stop-color:#8F4B8E"/>
				<stop  offset="1" style="stop-color:#514B92"/>
			</linearGradient>
			<path clip-path="url(#SVGID_17_)" fill="none" stroke="url(#SVGID_18_)" stroke-width="4" stroke-miterlimit="10" d="
				M165.64,736.188l34.35,32.043h37.388l6.921-30.854h0.001v-0.011l10.98-48.967h0.003l7.121-31.762h0.001v-0.004l17.343-77.318
				l-19.718-22.113l-21.964-24.639h-0.002l-4.859-5.451L213.727,538.5l0,0L76.65,618.658c1.378,3.787,2.129,7.877,2.129,12.144
				c0,7.047-2.051,13.614-5.593,19.139L165.64,736.188z M191.441,626.264c11.91,0,21.563,9.651,21.563,21.561
				s-9.653,21.563-21.563,21.563c-11.905,0-21.561-9.654-21.561-21.563S179.535,626.264,191.441,626.264z"/>
		</g>
		<g>
			<defs>
				<polygon id="SVGID_19_" points="479.713,768.23 479.713,391.121 0.268,219.994 0.268,768.23 				"/>
			</defs>
			<clipPath id="SVGID_20_">
				<use xlink:href="#SVGID_19_"  overflow="visible"/>
			</clipPath>
			
				<linearGradient id="SVGID_21_" gradientUnits="userSpaceOnUse" x1="405.9719" y1="81.1292" x2="288.901" y2="-18.512" gradientTransform="matrix(1 0 0 -1 -57.6001 732.0991)">
				<stop  offset="0" style="stop-color:#8F4B8E"/>
				<stop  offset="1" style="stop-color:#514B92"/>
			</linearGradient>
			<path clip-path="url(#SVGID_20_)" fill="none" stroke="url(#SVGID_21_)" stroke-width="4" stroke-miterlimit="10" d="
				M308.673,768.23l46.341-21.357l25.325-11.672c-0.729-2.84-1.116-5.817-1.116-8.885c0-9.486,3.71-18.104,9.759-24.484
				l-87.395-98.028h-0.002l-11.354-12.736L250.496,768.23H308.673z"/>
		</g>
		<g>
			<defs>
				<polygon id="SVGID_22_" points="479.713,768.23 479.713,391.121 0.268,219.994 0.268,768.23 				"/>
			</defs>
			<clipPath id="SVGID_23_">
				<use xlink:href="#SVGID_22_"  overflow="visible"/>
			</clipPath>
			
				<linearGradient id="SVGID_24_" gradientUnits="userSpaceOnUse" x1="635.22" y1="632.6306" x2="598.2565" y2="601.1704" gradientTransform="matrix(0 1 1 0 -202.0776 109.5776)">
				<stop  offset="0" style="stop-color:#8F4B8E"/>
				<stop  offset="1" style="stop-color:#514B92"/>
			</linearGradient>
			
				<circle clip-path="url(#SVGID_23_)" fill="none" stroke="url(#SVGID_24_)" stroke-width="4" stroke-miterlimit="10" cx="414.823" cy="726.317" r="22.269"/>
		</g>
		<g>
			<defs>
				<polygon id="SVGID_25_" points="479.713,768.23 479.713,391.121 0.268,219.994 0.268,768.23 				"/>
			</defs>
			<clipPath id="SVGID_26_">
				<use xlink:href="#SVGID_25_"  overflow="visible"/>
			</clipPath>
			
				<linearGradient id="SVGID_27_" gradientUnits="userSpaceOnUse" x1="463.1584" y1="-20.9446" x2="442.7231" y2="-38.3374" gradientTransform="matrix(1 0 0 -1 -57.6001 732.0991)">
				<stop  offset="0" style="stop-color:#8F4B8E"/>
				<stop  offset="1" style="stop-color:#514B92"/>
			</linearGradient>
			<polygon clip-path="url(#SVGID_26_)" fill="none" stroke="url(#SVGID_27_)" stroke-width="4" stroke-miterlimit="10" points="
				392.165,768.23 395.21,760.744 389.142,768.23 			"/>
		</g>
		<g>
			<defs>
				<polygon id="SVGID_28_" points="479.713,768.23 479.713,391.121 0.268,219.994 0.268,768.23 				"/>
			</defs>
			<clipPath id="SVGID_29_">
				<use xlink:href="#SVGID_28_"  overflow="visible"/>
			</clipPath>
			
				<linearGradient id="SVGID_30_" gradientUnits="userSpaceOnUse" x1="442.2922" y1="-10.2214" x2="396.903" y2="-48.853" gradientTransform="matrix(1 0 0 -1 -57.6001 732.0991)">
				<stop  offset="0" style="stop-color:#8F4B8E"/>
				<stop  offset="1" style="stop-color:#514B92"/>
			</linearGradient>
			<path clip-path="url(#SVGID_29_)" fill="none" stroke="url(#SVGID_30_)" stroke-width="4" stroke-miterlimit="10" d="
				M372.669,768.23l15.159-18.703c-0.741-0.863-1.443-1.764-2.104-2.695l-46.429,21.398H372.669z"/>
		</g>
		<g>
			<defs>
				<polygon id="SVGID_31_" points="479.713,768.23 479.713,391.121 0.268,219.994 0.268,768.23 				"/>
			</defs>
			<clipPath id="SVGID_32_">
				<use xlink:href="#SVGID_31_"  overflow="visible"/>
			</clipPath>
			
				<linearGradient id="SVGID_33_" gradientUnits="userSpaceOnUse" x1="383.8684" y1="527.5447" x2="346.9065" y2="496.0857" gradientTransform="matrix(0 1 1 0 -202.0776 109.5776)">
				<stop  offset="0" style="stop-color:#8F4B8E"/>
				<stop  offset="1" style="stop-color:#514B92"/>
			</linearGradient>
			
				<circle clip-path="url(#SVGID_32_)" fill="none" stroke="url(#SVGID_33_)" stroke-width="4" stroke-miterlimit="10" cx="309.737" cy="474.965" r="22.268"/>
		</g>
		<g>
			<defs>
				<polygon id="SVGID_34_" points="479.713,768.23 479.713,391.121 0.268,219.994 0.268,768.23 				"/>
			</defs>
			<clipPath id="SVGID_35_">
				<use xlink:href="#SVGID_34_"  overflow="visible"/>
			</clipPath>
			
				<linearGradient id="SVGID_36_" gradientUnits="userSpaceOnUse" x1="539.8225" y1="261.1785" x2="502.6144" y2="229.51" gradientTransform="matrix(0 1 1 0 -202.0776 109.5776)">
				<stop  offset="0" style="stop-color:#8F4B8E"/>
				<stop  offset="1" style="stop-color:#514B92"/>
			</linearGradient>
			<path clip-path="url(#SVGID_35_)" fill="none" stroke="url(#SVGID_36_)" stroke-width="4" stroke-miterlimit="10" d="
				M64.233,638.798l0.04-0.101c0.041-0.108,0.079-0.217,0.12-0.324c0.036-0.098,0.067-0.194,0.103-0.293l0.041-0.12
				c0.759-2.248,1.169-4.656,1.169-7.158c0-12.392-10.046-22.437-22.438-22.437c-12.388,0-22.432,10.045-22.432,22.437
				c0,8.707,4.96,16.256,12.21,19.973l0.043,0.023c0.129,0.063,0.258,0.129,0.391,0.192l0.161,0.076
				c0.089,0.045,0.178,0.086,0.271,0.125c0.093,0.045,0.187,0.086,0.284,0.129l0.151,0.068c0.138,0.059,0.275,0.117,0.413,0.172
				l0.026,0.014c2.613,1.064,5.477,1.652,8.477,1.652c6.201,0,11.813-2.512,15.867-6.574
				C61.344,644.439,63.096,641.77,64.233,638.798z"/>
		</g>
		<g>
			<defs>
				<polygon id="SVGID_37_" points="479.713,768.23 479.713,391.121 0.268,219.994 0.268,768.23 				"/>
			</defs>
			<clipPath id="SVGID_38_">
				<use xlink:href="#SVGID_37_"  overflow="visible"/>
			</clipPath>
			
				<linearGradient id="SVGID_39_" gradientUnits="userSpaceOnUse" x1="467.3118" y1="360.3884" x2="370.6062" y2="278.0807" gradientTransform="matrix(0 1 1 0 -202.0776 109.5776)">
				<stop  offset="0" style="stop-color:#8F4B8E"/>
				<stop  offset="1" style="stop-color:#514B92"/>
			</linearGradient>
			<path clip-path="url(#SVGID_38_)" fill="none" stroke="url(#SVGID_39_)" stroke-width="4" stroke-miterlimit="10" d="
				M224.534,517.378l-72.494-81.316c-5.38,3.285-11.705,5.18-18.473,5.18c-2.416,0-4.776-0.244-7.059-0.703L62.207,600.757
				c2.985,1.887,5.676,4.207,7.97,6.873l133.457-78.033L224.534,517.378z"/>
		</g>
		<g>
			<defs>
				<polygon id="SVGID_40_" points="479.713,768.23 479.713,391.121 0.268,219.994 0.268,768.23 				"/>
			</defs>
			<clipPath id="SVGID_41_">
				<use xlink:href="#SVGID_40_"  overflow="visible"/>
			</clipPath>
			
				<linearGradient id="SVGID_42_" gradientUnits="userSpaceOnUse" x1="314.6321" y1="351.3738" x2="277.6694" y2="319.9142" gradientTransform="matrix(0 1 1 0 -202.0776 109.5776)">
				<stop  offset="0" style="stop-color:#8F4B8E"/>
				<stop  offset="1" style="stop-color:#514B92"/>
			</linearGradient>
			<path clip-path="url(#SVGID_41_)" fill="none" stroke="url(#SVGID_42_)" stroke-width="4" stroke-miterlimit="10" d="
				M155.835,405.727c0-12.297-9.969-22.268-22.269-22.268s-22.269,9.971-22.269,22.268c0,12.301,9.969,22.271,22.269,22.271
				C145.866,427.997,155.835,418.027,155.835,405.727z"/>
		</g>
		<g>
			<defs>
				<polygon id="SVGID_43_" points="479.713,768.23 479.713,391.121 0.268,219.994 0.268,768.23 				"/>
			</defs>
			<clipPath id="SVGID_44_">
				<use xlink:href="#SVGID_43_"  overflow="visible"/>
			</clipPath>
			
				<linearGradient id="SVGID_45_" gradientUnits="userSpaceOnUse" x1="189.3733" y1="25.928" x2="121.4754" y2="-31.8612" gradientTransform="matrix(1 0 0 -1 -57.6001 732.0991)">
				<stop  offset="0" style="stop-color:#8F4B8E"/>
				<stop  offset="1" style="stop-color:#514B92"/>
			</linearGradient>
			<path clip-path="url(#SVGID_44_)" fill="none" stroke="url(#SVGID_45_)" stroke-width="4" stroke-miterlimit="10" d="
				M181.221,768.23l-77.619-72.41L64.456,659.3c-2.872,2.141-6.08,3.854-9.529,5.053L70.928,768.23H181.221z"/>
		</g>
		<g>
			<defs>
				<polygon id="SVGID_46_" points="479.713,768.23 479.713,391.121 0.268,219.994 0.268,768.23 				"/>
			</defs>
			<clipPath id="SVGID_47_">
				<use xlink:href="#SVGID_46_"  overflow="visible"/>
			</clipPath>
			
				<linearGradient id="SVGID_48_" gradientUnits="userSpaceOnUse" x1="391.2463" y1="465.7439" x2="295.8073" y2="384.5141" gradientTransform="matrix(0 1 1 0 -202.0776 109.5776)">
				<stop  offset="0" style="stop-color:#8F4B8E"/>
				<stop  offset="1" style="stop-color:#514B92"/>
			</linearGradient>
			<path clip-path="url(#SVGID_47_)" fill="none" stroke="url(#SVGID_48_)" stroke-width="4" stroke-miterlimit="10" d="
				M198.885,469.341l34.135,38.289v0.002h0.002l2.797,3.137l30.742-17.98h0.002l9.773-5.715c-1.37-3.778-2.117-7.854-2.117-12.106
				c0-2.328,0.225-4.603,0.653-6.802l-33.244-13.071h-0.002L180.48,431.05h-0.001l-16.744-6.581
				c-0.657,1.055-1.371,2.076-2.131,3.055L198.885,469.341z"/>
		</g>
		<g>
			<defs>
				<polygon id="SVGID_49_" points="479.713,768.23 479.713,391.121 0.268,219.994 0.268,768.23 				"/>
			</defs>
			<clipPath id="SVGID_50_">
				<use xlink:href="#SVGID_49_"  overflow="visible"/>
			</clipPath>
			
				<linearGradient id="SVGID_51_" gradientUnits="userSpaceOnUse" x1="264.5168" y1="468.6355" x2="241.1366" y2="448.7362" gradientTransform="matrix(0 1 1 0 -202.0776 109.5776)">
				<stop  offset="0" style="stop-color:#8F4B8E"/>
				<stop  offset="1" style="stop-color:#514B92"/>
			</linearGradient>
			
				<circle clip-path="url(#SVGID_50_)" fill="none" stroke="url(#SVGID_51_)" stroke-width="4" stroke-miterlimit="10" cx="256.608" cy="362.405" r="13.351"/>
		</g>
		<g>
			<defs>
				<polygon id="SVGID_52_" points="479.713,768.23 479.713,391.121 0.268,219.994 0.268,768.23 				"/>
			</defs>
			<clipPath id="SVGID_53_">
				<use xlink:href="#SVGID_52_"  overflow="visible"/>
			</clipPath>
			
				<linearGradient id="SVGID_54_" gradientUnits="userSpaceOnUse" x1="442.6838" y1="505.0525" x2="393.5844" y2="463.2632" gradientTransform="matrix(0 1 1 0 -202.0776 109.5776)">
				<stop  offset="0" style="stop-color:#8F4B8E"/>
				<stop  offset="1" style="stop-color:#514B92"/>
			</linearGradient>
			<path clip-path="url(#SVGID_53_)" fill="none" stroke="url(#SVGID_54_)" stroke-width="4" stroke-miterlimit="10" d="
				M283.198,563.919l4.438-19.779h0.001v-0.008l3.857-17.207v-0.002l4.323-19.271c-5.046-2.149-9.49-5.434-13.017-9.533
				l-38.294,22.388L283.198,563.919z"/>
		</g>
		<g>
			<defs>
				<polygon id="SVGID_55_" points="479.713,768.23 479.713,391.121 0.268,219.994 0.268,768.23 				"/>
			</defs>
			<clipPath id="SVGID_56_">
				<use xlink:href="#SVGID_55_"  overflow="visible"/>
			</clipPath>
			
				<linearGradient id="SVGID_57_" gradientUnits="userSpaceOnUse" x1="217.8245" y1="310.2043" x2="173.4541" y2="272.4399" gradientTransform="matrix(0 1 1 0 -202.0776 109.5776)">
				<stop  offset="0" style="stop-color:#8F4B8E"/>
				<stop  offset="1" style="stop-color:#514B92"/>
			</linearGradient>
			
				<circle clip-path="url(#SVGID_56_)" fill="none" stroke="url(#SVGID_57_)" stroke-width="4" stroke-miterlimit="10" cx="89.244" cy="305.217" r="27.132"/>
		</g>
	</g>
	<g enable-background="new    ">
		<path fill="#FFFFFF" d="M36.346,457.433l2.711-0.264c0.163,0.91,0.495,1.578,0.993,2.005c0.499,0.427,1.172,0.641,2.02,0.641
			c0.897,0,1.574-0.19,2.029-0.57c0.455-0.379,0.683-0.823,0.683-1.332c0-0.326-0.096-0.604-0.287-0.833
			c-0.192-0.229-0.526-0.428-1.003-0.598c-0.326-0.113-1.07-0.313-2.231-0.603c-1.494-0.37-2.542-0.825-3.145-1.365
			c-0.847-0.759-1.271-1.685-1.271-2.777c0-0.702,0.199-1.36,0.598-1.972c0.398-0.612,0.973-1.078,1.723-1.398
			c0.75-0.319,1.655-0.479,2.716-0.479c1.732,0,3.036,0.38,3.912,1.139c0.875,0.76,1.335,1.773,1.379,3.041l-2.787,0.122
			c-0.119-0.709-0.375-1.219-0.767-1.529c-0.393-0.311-0.981-0.467-1.765-0.467c-0.81,0-1.444,0.167-1.902,0.499
			c-0.295,0.214-0.442,0.499-0.442,0.857c0,0.326,0.138,0.605,0.414,0.838c0.352,0.295,1.205,0.603,2.561,0.922
			c1.356,0.32,2.358,0.651,3.008,0.993c0.65,0.343,1.158,0.81,1.525,1.403c0.367,0.593,0.551,1.325,0.551,2.198
			c0,0.79-0.22,1.531-0.659,2.222s-1.061,1.203-1.864,1.539c-0.804,0.336-1.805,0.504-3.003,0.504c-1.745,0-3.084-0.403-4.02-1.21
			C37.087,460.152,36.528,458.977,36.346,457.433z"/>
		<path fill="#FFFFFF" d="M55.683,458.742l2.636,0.442c-0.339,0.967-0.874,1.702-1.605,2.207c-0.731,0.506-1.646,0.758-2.745,0.758
			c-1.738,0-3.025-0.567-3.859-1.703c-0.659-0.91-0.989-2.059-0.989-3.446c0-1.656,0.433-2.954,1.299-3.893s1.961-1.407,3.286-1.407
			c1.487,0,2.661,0.491,3.521,1.474c0.86,0.981,1.271,2.486,1.233,4.514h-6.627c0.019,0.784,0.232,1.395,0.64,1.831
			c0.408,0.437,0.916,0.654,1.525,0.654c0.415,0,0.763-0.113,1.045-0.339C55.325,459.608,55.539,459.244,55.683,458.742z
			 M55.834,456.068c-0.019-0.766-0.217-1.348-0.593-1.746s-0.834-0.598-1.375-0.598c-0.577,0-1.054,0.21-1.431,0.63
			c-0.376,0.421-0.562,0.992-0.556,1.714H55.834z"/>
		<path fill="#FFFFFF" d="M60.418,451.926h2.438v1.365c0.872-1.061,1.911-1.591,3.116-1.591c0.64,0,1.195,0.132,1.666,0.396
			s0.857,0.662,1.158,1.195c0.439-0.533,0.913-0.932,1.421-1.195s1.051-0.396,1.628-0.396c0.734,0,1.356,0.149,1.864,0.447
			s0.888,0.735,1.139,1.313c0.182,0.427,0.273,1.117,0.273,2.07v6.393h-2.646v-5.715c0-0.991-0.091-1.631-0.273-1.92
			c-0.245-0.377-0.622-0.564-1.13-0.564c-0.37,0-0.719,0.112-1.045,0.339c-0.326,0.226-0.562,0.557-0.706,0.993
			c-0.145,0.436-0.216,1.125-0.216,2.066v4.801h-2.646v-5.479c0-0.973-0.047-1.6-0.141-1.883c-0.094-0.282-0.24-0.492-0.438-0.63
			c-0.197-0.139-0.466-0.207-0.805-0.207c-0.408,0-0.775,0.109-1.102,0.329s-0.56,0.536-0.701,0.951
			c-0.141,0.414-0.212,1.101-0.212,2.062v4.857h-2.646V451.926z"/>
		<path fill="#FFFFFF" d="M77.759,450.57v-2.447h2.646v2.447H77.759z M77.759,461.924v-9.998h2.646v9.998H77.759z"/>
		<path fill="#FFFFFF" d="M92.21,461.924h-2.646v-5.103c0-1.079-0.057-1.777-0.169-2.095c-0.113-0.316-0.296-0.563-0.551-0.739
			c-0.254-0.175-0.56-0.263-0.918-0.263c-0.458,0-0.869,0.125-1.233,0.376c-0.364,0.251-0.614,0.584-0.749,0.998
			c-0.135,0.414-0.203,1.18-0.203,2.297v4.528h-2.645v-9.998h2.457v1.469c0.872-1.13,1.971-1.694,3.295-1.694
			c0.583,0,1.117,0.105,1.6,0.315s0.849,0.479,1.097,0.805c0.248,0.326,0.42,0.696,0.518,1.111c0.097,0.414,0.146,1.007,0.146,1.779
			V461.924z"/>
		<path fill="#FFFFFF" d="M96.87,454.976l-2.4-0.434c0.27-0.966,0.734-1.682,1.393-2.146c0.659-0.464,1.638-0.696,2.937-0.696
			c1.18,0,2.059,0.14,2.636,0.419c0.577,0.279,0.984,0.634,1.219,1.063s0.353,1.22,0.353,2.368l-0.028,3.088
			c0,0.878,0.042,1.526,0.127,1.943c0.085,0.418,0.243,0.865,0.476,1.342h-2.617c-0.069-0.176-0.154-0.437-0.254-0.781
			c-0.044-0.157-0.075-0.261-0.094-0.311c-0.452,0.439-0.935,0.769-1.45,0.988s-1.063,0.329-1.647,0.329
			c-1.029,0-1.84-0.279-2.434-0.838c-0.593-0.559-0.89-1.265-0.89-2.118c0-0.564,0.135-1.068,0.405-1.511
			c0.27-0.442,0.648-0.781,1.135-1.017s1.188-0.44,2.104-0.616c1.236-0.232,2.093-0.449,2.57-0.65v-0.263
			c0-0.509-0.125-0.871-0.376-1.088s-0.725-0.324-1.421-0.324c-0.471,0-0.838,0.092-1.102,0.277S97.033,454.511,96.87,454.976z
			 M100.409,457.123c-0.339,0.112-0.875,0.248-1.61,0.404c-0.734,0.157-1.214,0.311-1.44,0.461
			c-0.345,0.245-0.518,0.556-0.518,0.933c0,0.37,0.138,0.69,0.414,0.96c0.276,0.271,0.628,0.405,1.055,0.405
			c0.477,0,0.932-0.157,1.365-0.471c0.32-0.239,0.53-0.53,0.631-0.876c0.069-0.226,0.104-0.655,0.104-1.29V457.123z M97.548,450.702
			l1.299-2.814h2.965l-2.589,2.814H97.548z"/>
		<path fill="#FFFFFF" d="M108.148,461.924h-2.646v-9.998h2.457v1.422c0.42-0.672,0.798-1.114,1.134-1.327
			c0.336-0.214,0.717-0.32,1.144-0.32c0.603,0,1.183,0.166,1.742,0.499l-0.819,2.307c-0.446-0.289-0.86-0.434-1.243-0.434
			c-0.37,0-0.684,0.103-0.941,0.307c-0.257,0.203-0.46,0.572-0.607,1.105c-0.148,0.534-0.221,1.651-0.221,3.352V461.924z"/>
		<path fill="#FFFFFF" d="M113.118,450.57v-2.447h2.646v2.447H113.118z M113.118,461.924v-9.998h2.646v9.998H113.118z"/>
		<path fill="#FFFFFF" d="M117.863,456.784c0-0.879,0.216-1.729,0.649-2.552s1.046-1.449,1.841-1.883
			c0.793-0.433,1.68-0.649,2.659-0.649c1.513,0,2.752,0.491,3.719,1.474c0.966,0.981,1.45,2.223,1.45,3.723
			c0,1.513-0.488,2.767-1.464,3.761c-0.976,0.995-2.205,1.492-3.686,1.492c-0.917,0-1.791-0.207-2.622-0.621
			s-1.464-1.021-1.897-1.821C118.079,458.906,117.863,457.932,117.863,456.784z M120.574,456.925c0,0.992,0.235,1.751,0.706,2.278
			s1.051,0.791,1.741,0.791s1.27-0.264,1.737-0.791c0.467-0.527,0.701-1.293,0.701-2.297c0-0.979-0.234-1.732-0.701-2.26
			c-0.468-0.527-1.047-0.791-1.737-0.791s-1.271,0.264-1.741,0.791S120.574,455.933,120.574,456.925z"/>
		<path fill="#FFFFFF" d="M144.458,456.849l2.702,0.856c-0.414,1.507-1.103,2.625-2.066,3.356s-2.186,1.097-3.667,1.097
			c-1.833,0-3.339-0.626-4.519-1.878c-1.18-1.252-1.77-2.964-1.77-5.136c0-2.297,0.593-4.081,1.779-5.352
			c1.186-1.271,2.746-1.906,4.679-1.906c1.688,0,3.06,0.499,4.114,1.496c0.627,0.591,1.098,1.438,1.412,2.542l-2.758,0.659
			c-0.164-0.716-0.504-1.28-1.021-1.694c-0.518-0.414-1.147-0.621-1.888-0.621c-1.023,0-1.853,0.367-2.49,1.102
			c-0.637,0.733-0.956,1.923-0.956,3.567c0,1.745,0.313,2.987,0.941,3.729c0.627,0.74,1.443,1.11,2.447,1.11
			c0.741,0,1.378-0.235,1.911-0.706C143.843,458.6,144.226,457.86,144.458,456.849z"/>
		<path fill="#FFFFFF" d="M151.509,454.976l-2.4-0.434c0.27-0.966,0.734-1.682,1.393-2.146c0.659-0.464,1.638-0.696,2.937-0.696
			c1.18,0,2.059,0.14,2.636,0.419c0.577,0.279,0.984,0.634,1.219,1.063s0.353,1.22,0.353,2.368l-0.028,3.088
			c0,0.878,0.042,1.526,0.127,1.943c0.085,0.418,0.243,0.865,0.476,1.342h-2.617c-0.069-0.176-0.154-0.437-0.254-0.781
			c-0.044-0.157-0.075-0.261-0.094-0.311c-0.452,0.439-0.935,0.769-1.45,0.988s-1.063,0.329-1.647,0.329
			c-1.029,0-1.84-0.279-2.434-0.838c-0.593-0.559-0.89-1.265-0.89-2.118c0-0.564,0.135-1.068,0.405-1.511
			c0.27-0.442,0.648-0.781,1.135-1.017s1.188-0.44,2.104-0.616c1.236-0.232,2.093-0.449,2.57-0.65v-0.263
			c0-0.509-0.125-0.871-0.376-1.088s-0.725-0.324-1.421-0.324c-0.471,0-0.838,0.092-1.102,0.277S151.672,454.511,151.509,454.976z
			 M155.049,457.123c-0.339,0.112-0.875,0.248-1.61,0.404c-0.734,0.157-1.214,0.311-1.44,0.461
			c-0.345,0.245-0.518,0.556-0.518,0.933c0,0.37,0.138,0.69,0.414,0.96c0.276,0.271,0.628,0.405,1.055,0.405
			c0.477,0,0.932-0.157,1.365-0.471c0.32-0.239,0.53-0.53,0.631-0.876c0.069-0.226,0.104-0.655,0.104-1.29V457.123z"/>
		<path fill="#FFFFFF" d="M160.179,451.926h2.466v1.469c0.32-0.502,0.753-0.91,1.299-1.224s1.151-0.471,1.817-0.471
			c1.161,0,2.146,0.455,2.956,1.365s1.214,2.178,1.214,3.803c0,1.67-0.408,2.968-1.224,3.893c-0.816,0.926-1.805,1.389-2.966,1.389
			c-0.552,0-1.053-0.109-1.501-0.329s-0.921-0.597-1.417-1.13v5.037h-2.646V451.926z M162.797,456.756
			c0,1.123,0.223,1.953,0.668,2.489c0.445,0.537,0.988,0.806,1.628,0.806c0.615,0,1.126-0.247,1.535-0.739
			c0.408-0.493,0.612-1.301,0.612-2.424c0-1.049-0.21-1.827-0.631-2.335c-0.42-0.509-0.941-0.763-1.563-0.763
			c-0.646,0-1.183,0.249-1.61,0.748S162.797,455.776,162.797,456.756z"/>
		<path fill="#FFFFFF" d="M172.032,450.57v-2.447h2.646v2.447H172.032z M172.032,461.924v-9.998h2.646v9.998H172.032z"/>
		<path fill="#FFFFFF" d="M176.117,461.924l3.606-5.149l-3.455-4.849h3.229l1.77,2.749l1.864-2.749h3.106l-3.389,4.735l3.7,5.263
			h-3.248l-2.033-3.098l-2.052,3.098H176.117z"/>
		<path fill="#FFFFFF" d="M190.088,454.976l-2.4-0.434c0.27-0.966,0.734-1.682,1.393-2.146c0.659-0.464,1.638-0.696,2.937-0.696
			c1.18,0,2.059,0.14,2.636,0.419c0.577,0.279,0.984,0.634,1.219,1.063s0.353,1.22,0.353,2.368l-0.028,3.088
			c0,0.878,0.042,1.526,0.127,1.943c0.085,0.418,0.243,0.865,0.476,1.342h-2.617c-0.069-0.176-0.154-0.437-0.254-0.781
			c-0.044-0.157-0.075-0.261-0.094-0.311c-0.452,0.439-0.935,0.769-1.45,0.988s-1.063,0.329-1.647,0.329
			c-1.029,0-1.84-0.279-2.434-0.838c-0.593-0.559-0.89-1.265-0.89-2.118c0-0.564,0.135-1.068,0.405-1.511
			c0.27-0.442,0.648-0.781,1.135-1.017s1.188-0.44,2.104-0.616c1.236-0.232,2.093-0.449,2.57-0.65v-0.263
			c0-0.509-0.125-0.871-0.376-1.088s-0.725-0.324-1.421-0.324c-0.471,0-0.838,0.092-1.102,0.277S190.251,454.511,190.088,454.976z
			 M193.628,457.123c-0.339,0.112-0.875,0.248-1.61,0.404c-0.734,0.157-1.214,0.311-1.44,0.461
			c-0.345,0.245-0.518,0.556-0.518,0.933c0,0.37,0.138,0.69,0.414,0.96c0.276,0.271,0.628,0.405,1.055,0.405
			c0.477,0,0.932-0.157,1.365-0.471c0.32-0.239,0.53-0.53,0.631-0.876c0.069-0.226,0.104-0.655,0.104-1.29V457.123z"/>
		<path fill="#FFFFFF" d="M198.721,461.924v-13.801h2.646v4.971c0.815-0.929,1.782-1.394,2.899-1.394
			c1.217,0,2.225,0.44,3.022,1.322c0.797,0.882,1.195,2.148,1.195,3.799c0,1.707-0.406,3.022-1.219,3.944
			c-0.813,0.923-1.8,1.384-2.961,1.384c-0.571,0-1.134-0.143-1.69-0.428c-0.555-0.286-1.034-0.708-1.436-1.267v1.469H198.721z
			 M201.347,456.708c0,1.036,0.163,1.802,0.49,2.298c0.458,0.702,1.067,1.054,1.826,1.054c0.583,0,1.081-0.249,1.492-0.748
			c0.411-0.499,0.617-1.285,0.617-2.358c0-1.143-0.208-1.966-0.622-2.471c-0.414-0.506-0.945-0.758-1.591-0.758
			c-0.634,0-1.161,0.246-1.582,0.738C201.557,454.956,201.347,455.704,201.347,456.708z"/>
		<path fill="#FFFFFF" d="M212.588,454.976l-2.4-0.434c0.27-0.966,0.734-1.682,1.393-2.146c0.659-0.464,1.638-0.696,2.937-0.696
			c1.18,0,2.059,0.14,2.636,0.419c0.577,0.279,0.984,0.634,1.219,1.063s0.353,1.22,0.353,2.368l-0.028,3.088
			c0,0.878,0.042,1.526,0.127,1.943c0.085,0.418,0.243,0.865,0.476,1.342h-2.617c-0.069-0.176-0.154-0.437-0.254-0.781
			c-0.044-0.157-0.075-0.261-0.094-0.311c-0.452,0.439-0.935,0.769-1.45,0.988s-1.063,0.329-1.647,0.329
			c-1.029,0-1.84-0.279-2.434-0.838c-0.593-0.559-0.89-1.265-0.89-2.118c0-0.564,0.135-1.068,0.405-1.511
			c0.27-0.442,0.648-0.781,1.135-1.017s1.188-0.44,2.104-0.616c1.236-0.232,2.093-0.449,2.57-0.65v-0.263
			c0-0.509-0.125-0.871-0.376-1.088s-0.725-0.324-1.421-0.324c-0.471,0-0.838,0.092-1.102,0.277S212.751,454.511,212.588,454.976z
			 M216.127,457.123c-0.339,0.112-0.875,0.248-1.61,0.404c-0.734,0.157-1.214,0.311-1.44,0.461
			c-0.345,0.245-0.518,0.556-0.518,0.933c0,0.37,0.138,0.69,0.414,0.96c0.276,0.271,0.628,0.405,1.055,0.405
			c0.477,0,0.932-0.157,1.365-0.471c0.32-0.239,0.53-0.53,0.631-0.876c0.069-0.226,0.104-0.655,0.104-1.29V457.123z"/>
		<path fill="#FFFFFF" d="M235.86,461.924h-2.457v-1.469c-0.408,0.571-0.89,0.996-1.445,1.275c-0.555,0.279-1.115,0.419-1.68,0.419
			c-1.148,0-2.132-0.463-2.951-1.389c-0.819-0.925-1.229-2.217-1.229-3.873c0-1.695,0.398-2.983,1.195-3.865
			s1.804-1.322,3.022-1.322c1.117,0,2.083,0.465,2.899,1.394v-4.971h2.646V461.924z M228.799,456.708
			c0,1.067,0.147,1.84,0.442,2.316c0.427,0.69,1.023,1.035,1.789,1.035c0.609,0,1.126-0.259,1.554-0.776
			c0.426-0.518,0.64-1.291,0.64-2.32c0-1.148-0.208-1.976-0.622-2.48c-0.414-0.506-0.945-0.758-1.591-0.758
			c-0.628,0-1.153,0.249-1.577,0.748C229.011,454.971,228.799,455.717,228.799,456.708z"/>
		<path fill="#FFFFFF" d="M244.256,458.742l2.637,0.442c-0.339,0.967-0.874,1.702-1.605,2.207c-0.73,0.506-1.646,0.758-2.744,0.758
			c-1.738,0-3.025-0.567-3.859-1.703c-0.659-0.91-0.989-2.059-0.989-3.446c0-1.656,0.433-2.954,1.299-3.893s1.961-1.407,3.285-1.407
			c1.488,0,2.661,0.491,3.521,1.474c0.859,0.981,1.271,2.486,1.232,4.514h-6.627c0.019,0.784,0.232,1.395,0.641,1.831
			c0.407,0.437,0.916,0.654,1.524,0.654c0.415,0,0.763-0.113,1.045-0.339S244.113,459.244,244.256,458.742z M244.407,456.068
			c-0.019-0.766-0.217-1.348-0.593-1.746c-0.377-0.398-0.835-0.598-1.375-0.598c-0.577,0-1.055,0.21-1.431,0.63
			c-0.376,0.421-0.562,0.992-0.556,1.714H244.407z"/>
		<path fill="#FFFFFF" d="M266.295,461.924h-3.031l-1.205-3.135h-5.517l-1.14,3.135h-2.955l5.375-13.801h2.947L266.295,461.924z
			 M261.164,456.464l-1.901-5.121l-1.864,5.121H261.164z"/>
		<path fill="#FFFFFF" d="M267.68,451.926h2.466v1.469c0.32-0.502,0.753-0.91,1.3-1.224c0.545-0.313,1.15-0.471,1.816-0.471
			c1.161,0,2.146,0.455,2.956,1.365c0.811,0.91,1.215,2.178,1.215,3.803c0,1.67-0.408,2.968-1.225,3.893
			c-0.815,0.926-1.804,1.389-2.966,1.389c-0.552,0-1.053-0.109-1.501-0.329s-0.921-0.597-1.417-1.13v5.037h-2.645V451.926z
			 M270.297,456.756c0,1.123,0.223,1.953,0.668,2.489c0.445,0.537,0.988,0.806,1.629,0.806c0.615,0,1.126-0.247,1.534-0.739
			c0.407-0.493,0.612-1.301,0.612-2.424c0-1.049-0.211-1.827-0.631-2.335c-0.421-0.509-0.941-0.763-1.563-0.763
			c-0.646,0-1.184,0.249-1.61,0.748S270.297,455.776,270.297,456.756z"/>
		<path fill="#FFFFFF" d="M279.531,461.924v-13.801h2.646v13.801H279.531z"/>
		<path fill="#FFFFFF" d="M284.888,450.57v-2.447h2.646v2.447H284.888z M284.888,461.924v-9.998h2.646v9.998H284.888z"/>
		<path fill="#FFFFFF" d="M298.962,454.882l-2.608,0.471c-0.088-0.521-0.287-0.913-0.598-1.177s-0.714-0.396-1.209-0.396
			c-0.659,0-1.186,0.228-1.577,0.683c-0.393,0.455-0.589,1.216-0.589,2.283c0,1.187,0.199,2.024,0.599,2.514
			c0.398,0.489,0.933,0.734,1.604,0.734c0.502,0,0.913-0.143,1.233-0.429c0.32-0.285,0.546-0.776,0.678-1.474l2.599,0.443
			c-0.271,1.192-0.788,2.093-1.554,2.701c-0.766,0.609-1.792,0.913-3.078,0.913c-1.463,0-2.628-0.461-3.497-1.384
			c-0.87-0.922-1.305-2.199-1.305-3.831c0-1.65,0.437-2.936,1.309-3.855c0.873-0.919,2.053-1.379,3.54-1.379
			c1.218,0,2.186,0.262,2.904,0.786S298.648,453.808,298.962,454.882z"/>
		<path fill="#FFFFFF" d="M302.944,454.976l-2.4-0.434c0.271-0.966,0.734-1.682,1.394-2.146c0.659-0.464,1.638-0.696,2.938-0.696
			c1.18,0,2.059,0.14,2.636,0.419s0.983,0.634,1.219,1.063s0.354,1.22,0.354,2.368l-0.028,3.088c0,0.878,0.042,1.526,0.127,1.943
			c0.085,0.418,0.243,0.865,0.476,1.342h-2.617c-0.069-0.176-0.154-0.437-0.254-0.781c-0.044-0.157-0.075-0.261-0.095-0.311
			c-0.451,0.439-0.935,0.769-1.449,0.988s-1.064,0.329-1.647,0.329c-1.029,0-1.841-0.279-2.434-0.838
			c-0.594-0.559-0.89-1.265-0.89-2.118c0-0.564,0.135-1.068,0.404-1.511s0.648-0.781,1.135-1.017s1.188-0.44,2.104-0.616
			c1.236-0.232,2.094-0.449,2.57-0.65v-0.263c0-0.509-0.125-0.871-0.376-1.088c-0.252-0.217-0.726-0.324-1.422-0.324
			c-0.471,0-0.838,0.092-1.102,0.277S303.108,454.511,302.944,454.976z M306.484,457.123c-0.339,0.112-0.875,0.248-1.609,0.404
			c-0.734,0.157-1.215,0.311-1.44,0.461c-0.346,0.245-0.518,0.556-0.518,0.933c0,0.37,0.138,0.69,0.414,0.96
			c0.275,0.271,0.627,0.405,1.054,0.405c0.478,0,0.933-0.157,1.365-0.471c0.32-0.239,0.53-0.53,0.631-0.876
			c0.069-0.226,0.104-0.655,0.104-1.29V457.123z"/>
		<path fill="#FFFFFF" d="M320.407,454.882l-2.608,0.471c-0.088-0.521-0.287-0.913-0.598-1.177s-0.714-0.396-1.209-0.396
			c-0.659,0-1.186,0.228-1.577,0.683c-0.393,0.455-0.589,1.216-0.589,2.283c0,1.187,0.199,2.024,0.599,2.514
			c0.398,0.489,0.933,0.734,1.604,0.734c0.502,0,0.913-0.143,1.233-0.429c0.32-0.285,0.546-0.776,0.678-1.474l2.599,0.443
			c-0.271,1.192-0.788,2.093-1.554,2.701c-0.766,0.609-1.792,0.913-3.078,0.913c-1.463,0-2.628-0.461-3.497-1.384
			c-0.87-0.922-1.305-2.199-1.305-3.831c0-1.65,0.437-2.936,1.309-3.855c0.873-0.919,2.053-1.379,3.54-1.379
			c1.218,0,2.186,0.262,2.904,0.786S320.093,453.808,320.407,454.882z M313.281,465.718v-1.111c0.646,0.069,1.239,0.104,1.779,0.104
			c0.559,0,0.973-0.1,1.243-0.301c0.207-0.15,0.311-0.346,0.311-0.584c0-0.213-0.098-0.398-0.292-0.555
			c-0.194-0.157-0.496-0.235-0.903-0.235c-0.402,0-0.813,0.063-1.233,0.188l0.244-0.932c0.49-0.17,1.017-0.254,1.582-0.254
			c0.784,0,1.381,0.172,1.788,0.518c0.408,0.345,0.612,0.766,0.612,1.262c0,0.552-0.226,1.001-0.678,1.346
			c-0.608,0.471-1.481,0.706-2.617,0.706C314.307,465.868,313.695,465.818,313.281,465.718z"/>
		<path fill="#FFFFFF" d="M321.8,456.784c0-0.879,0.217-1.729,0.65-2.552c0.433-0.822,1.046-1.449,1.84-1.883
			c0.794-0.433,1.681-0.649,2.66-0.649c1.512,0,2.752,0.491,3.718,1.474c0.967,0.981,1.45,2.223,1.45,3.723
			c0,1.513-0.488,2.767-1.464,3.761c-0.976,0.995-2.204,1.492-3.686,1.492c-0.917,0-1.79-0.207-2.622-0.621
			s-1.464-1.021-1.896-1.821C322.017,458.906,321.8,457.932,321.8,456.784z M324.916,450.58h-1.205
			c-0.006-0.145-0.009-0.258-0.009-0.339c0-0.659,0.16-1.166,0.479-1.521c0.32-0.354,0.731-0.532,1.233-0.532
			c0.22,0,0.424,0.023,0.612,0.07c0.188,0.048,0.532,0.183,1.03,0.405c0.499,0.223,0.89,0.334,1.173,0.334
			c0.2,0,0.368-0.063,0.503-0.188c0.136-0.125,0.222-0.335,0.259-0.63h1.225c-0.007,0.847-0.165,1.452-0.476,1.816
			s-0.711,0.546-1.2,0.546c-0.214,0-0.424-0.021-0.631-0.065c-0.145-0.038-0.506-0.167-1.083-0.387
			c-0.577-0.219-0.998-0.329-1.261-0.329c-0.201,0-0.358,0.062-0.471,0.184C324.983,450.066,324.923,450.278,324.916,450.58z
			 M324.512,456.925c0,0.992,0.235,1.751,0.706,2.278s1.051,0.791,1.741,0.791s1.27-0.264,1.737-0.791s0.701-1.293,0.701-2.297
			c0-0.979-0.233-1.732-0.701-2.26s-1.047-0.791-1.737-0.791s-1.271,0.264-1.741,0.791S324.512,455.933,324.512,456.925z"/>
		<path fill="#FFFFFF" d="M339.98,458.742l2.636,0.442c-0.339,0.967-0.874,1.702-1.605,2.207c-0.73,0.506-1.646,0.758-2.744,0.758
			c-1.738,0-3.025-0.567-3.859-1.703c-0.659-0.91-0.988-2.059-0.988-3.446c0-1.656,0.433-2.954,1.299-3.893s1.961-1.407,3.285-1.407
			c1.487,0,2.661,0.491,3.521,1.474c0.859,0.981,1.271,2.486,1.233,4.514h-6.628c0.019,0.784,0.232,1.395,0.64,1.831
			c0.408,0.437,0.917,0.654,1.525,0.654c0.414,0,0.763-0.113,1.045-0.339S339.835,459.244,339.98,458.742z M340.13,456.068
			c-0.019-0.766-0.217-1.348-0.593-1.746c-0.377-0.398-0.835-0.598-1.375-0.598c-0.577,0-1.054,0.21-1.431,0.63
			c-0.377,0.421-0.562,0.992-0.556,1.714H340.13z"/>
		<path fill="#FFFFFF" d="M343.981,459.071l2.654-0.404c0.113,0.515,0.342,0.905,0.688,1.172c0.345,0.267,0.828,0.399,1.45,0.399
			c0.684,0,1.198-0.125,1.543-0.376c0.232-0.176,0.349-0.411,0.349-0.706c0-0.201-0.063-0.367-0.188-0.499
			c-0.132-0.126-0.427-0.241-0.885-0.349c-2.134-0.471-3.486-0.9-4.058-1.289c-0.79-0.54-1.186-1.29-1.186-2.25
			c0-0.866,0.342-1.595,1.025-2.185c0.685-0.59,1.745-0.885,3.183-0.885c1.368,0,2.385,0.223,3.05,0.668
			c0.665,0.446,1.123,1.105,1.375,1.978l-2.495,0.461c-0.106-0.389-0.31-0.688-0.607-0.895s-0.724-0.311-1.275-0.311
			c-0.696,0-1.195,0.098-1.497,0.292c-0.201,0.138-0.301,0.317-0.301,0.537c0,0.188,0.088,0.348,0.264,0.479
			c0.238,0.176,1.062,0.424,2.471,0.744c1.409,0.319,2.393,0.712,2.951,1.177c0.553,0.471,0.829,1.126,0.829,1.968
			c0,0.916-0.383,1.703-1.148,2.362c-0.767,0.659-1.899,0.988-3.398,0.988c-1.362,0-2.44-0.275-3.234-0.828
			C344.744,460.769,344.225,460.019,343.981,459.071z"/>
		<path fill="#FFFFFF" d="M370.16,461.924h-2.457v-1.469c-0.407,0.571-0.89,0.996-1.444,1.275c-0.556,0.279-1.116,0.419-1.681,0.419
			c-1.148,0-2.133-0.463-2.951-1.389c-0.819-0.925-1.229-2.217-1.229-3.873c0-1.695,0.398-2.983,1.195-3.865
			s1.805-1.322,3.022-1.322c1.116,0,2.083,0.465,2.899,1.394v-4.971h2.645V461.924z M363.1,456.708c0,1.067,0.147,1.84,0.443,2.316
			c0.427,0.69,1.022,1.035,1.788,1.035c0.608,0,1.127-0.259,1.554-0.776s0.64-1.291,0.64-2.32c0-1.148-0.207-1.976-0.621-2.48
			c-0.414-0.506-0.944-0.758-1.591-0.758c-0.628,0-1.153,0.249-1.577,0.748S363.1,455.717,363.1,456.708z"/>
		<path fill="#FFFFFF" d="M378.559,458.742l2.636,0.442c-0.339,0.967-0.874,1.702-1.605,2.207c-0.73,0.506-1.646,0.758-2.744,0.758
			c-1.738,0-3.025-0.567-3.859-1.703c-0.659-0.91-0.988-2.059-0.988-3.446c0-1.656,0.433-2.954,1.299-3.893s1.961-1.407,3.285-1.407
			c1.487,0,2.661,0.491,3.521,1.474c0.859,0.981,1.271,2.486,1.233,4.514h-6.628c0.019,0.784,0.232,1.395,0.64,1.831
			c0.408,0.437,0.917,0.654,1.525,0.654c0.414,0,0.763-0.113,1.045-0.339S378.414,459.244,378.559,458.742z M378.709,456.068
			c-0.019-0.766-0.217-1.348-0.593-1.746c-0.377-0.398-0.835-0.598-1.375-0.598c-0.577,0-1.054,0.21-1.431,0.63
			c-0.377,0.421-0.562,0.992-0.556,1.714H378.709z"/>
	</g>
	<g enable-background="new    ">
		<path fill="#FFFFFF" d="M36.968,485.059v-13.801h2.787v13.801H36.968z"/>
		<path fill="#FFFFFF" d="M51.484,485.059h-2.646v-5.103c0-1.079-0.057-1.777-0.169-2.095c-0.113-0.316-0.296-0.563-0.551-0.739
			c-0.254-0.175-0.56-0.263-0.918-0.263c-0.458,0-0.869,0.125-1.233,0.376c-0.364,0.251-0.614,0.584-0.749,0.998
			c-0.135,0.414-0.203,1.18-0.203,2.297v4.528h-2.645v-9.998h2.457v1.469c0.872-1.13,1.971-1.694,3.295-1.694
			c0.583,0,1.117,0.105,1.6,0.315s0.849,0.479,1.097,0.805c0.248,0.326,0.42,0.696,0.518,1.111c0.097,0.414,0.146,1.007,0.146,1.779
			V485.059z"/>
		<path fill="#FFFFFF" d="M58.752,475.061v2.109h-1.808v4.029c0,0.815,0.017,1.291,0.052,1.426c0.034,0.135,0.113,0.246,0.235,0.334
			c0.122,0.088,0.271,0.132,0.447,0.132c0.245,0,0.599-0.085,1.063-0.254l0.226,2.052c-0.615,0.264-1.312,0.396-2.09,0.396
			c-0.477,0-0.907-0.08-1.29-0.239c-0.383-0.16-0.664-0.367-0.842-0.622c-0.179-0.254-0.303-0.598-0.372-1.03
			c-0.056-0.308-0.084-0.929-0.084-1.864v-4.358h-1.214v-2.109h1.214v-1.986l2.655-1.544v3.53H58.752z"/>
		<path fill="#FFFFFF" d="M66.377,481.878l2.636,0.442c-0.339,0.967-0.874,1.702-1.605,2.207c-0.731,0.506-1.646,0.758-2.745,0.758
			c-1.738,0-3.025-0.567-3.859-1.703c-0.659-0.91-0.989-2.059-0.989-3.446c0-1.656,0.433-2.954,1.299-3.893s1.961-1.407,3.286-1.407
			c1.487,0,2.661,0.491,3.521,1.474c0.86,0.981,1.271,2.486,1.233,4.514h-6.627c0.019,0.784,0.232,1.395,0.64,1.831
			c0.408,0.437,0.916,0.654,1.525,0.654c0.415,0,0.763-0.113,1.045-0.339C66.02,482.744,66.233,482.38,66.377,481.878z
			 M66.528,479.204c-0.019-0.766-0.217-1.348-0.593-1.746s-0.834-0.598-1.375-0.598c-0.577,0-1.054,0.21-1.431,0.63
			c-0.376,0.421-0.562,0.992-0.556,1.714H66.528z"/>
		<path fill="#FFFFFF" d="M71.31,485.059v-13.801h2.646v13.801H71.31z"/>
		<path fill="#FFFFFF" d="M76.667,473.706v-2.447h2.646v2.447H76.667z M76.667,485.059v-9.998h2.646v9.998H76.667z"/>
		<path fill="#FFFFFF" d="M81.779,485.719l3.022,0.367c0.05,0.352,0.166,0.593,0.348,0.725c0.251,0.188,0.646,0.282,1.186,0.282
			c0.69,0,1.208-0.104,1.554-0.311c0.232-0.138,0.408-0.361,0.527-0.668c0.082-0.22,0.123-0.625,0.123-1.215v-1.459
			c-0.791,1.079-1.789,1.619-2.994,1.619c-1.343,0-2.407-0.568-3.191-1.704c-0.615-0.897-0.922-2.015-0.922-3.352
			c0-1.676,0.403-2.956,1.209-3.841c0.806-0.885,1.809-1.327,3.008-1.327c1.236,0,2.256,0.543,3.06,1.629v-1.403h2.476v8.972
			c0,1.18-0.098,2.062-0.292,2.646c-0.195,0.584-0.468,1.042-0.819,1.375c-0.352,0.332-0.821,0.593-1.408,0.781
			c-0.587,0.188-1.329,0.282-2.226,0.282c-1.695,0-2.896-0.29-3.606-0.871c-0.709-0.58-1.063-1.316-1.063-2.207
			C81.77,485.95,81.773,485.844,81.779,485.719z M84.142,479.853c0,1.061,0.206,1.838,0.617,2.33
			c0.411,0.493,0.918,0.739,1.521,0.739c0.646,0,1.192-0.253,1.638-0.758c0.445-0.506,0.668-1.254,0.668-2.245
			c0-1.036-0.213-1.805-0.64-2.307s-0.966-0.753-1.619-0.753c-0.634,0-1.156,0.246-1.567,0.738
			C84.347,478.092,84.142,478.843,84.142,479.853z"/>
		<path fill="#FFFFFF" d="M99.59,481.878l2.636,0.442c-0.339,0.967-0.874,1.702-1.605,2.207c-0.731,0.506-1.646,0.758-2.745,0.758
			c-1.738,0-3.025-0.567-3.859-1.703c-0.659-0.91-0.989-2.059-0.989-3.446c0-1.656,0.433-2.954,1.299-3.893s1.961-1.407,3.286-1.407
			c1.487,0,2.661,0.491,3.521,1.474c0.86,0.981,1.271,2.486,1.233,4.514H95.74c0.019,0.784,0.232,1.395,0.64,1.831
			c0.408,0.437,0.916,0.654,1.525,0.654c0.415,0,0.763-0.113,1.045-0.339C99.233,482.744,99.446,482.38,99.59,481.878z
			 M94.516,473.8l1.977-2.776h2.448l1.949,2.776h-2.127l-1.092-1.402l-1.017,1.402H94.516z M99.741,479.204
			c-0.019-0.766-0.217-1.348-0.593-1.746s-0.834-0.598-1.375-0.598c-0.577,0-1.054,0.21-1.431,0.63
			c-0.376,0.421-0.562,0.992-0.556,1.714H99.741z"/>
		<path fill="#FFFFFF" d="M113.617,485.059h-2.646v-5.103c0-1.079-0.057-1.777-0.169-2.095c-0.113-0.316-0.296-0.563-0.551-0.739
			c-0.254-0.175-0.56-0.263-0.918-0.263c-0.458,0-0.869,0.125-1.233,0.376c-0.364,0.251-0.614,0.584-0.749,0.998
			c-0.135,0.414-0.203,1.18-0.203,2.297v4.528h-2.645v-9.998h2.457v1.469c0.872-1.13,1.971-1.694,3.295-1.694
			c0.583,0,1.117,0.105,1.6,0.315s0.849,0.479,1.097,0.805c0.248,0.326,0.42,0.696,0.518,1.111c0.097,0.414,0.146,1.007,0.146,1.779
			V485.059z"/>
		<path fill="#FFFFFF" d="M125.018,478.017l-2.608,0.471c-0.088-0.521-0.287-0.913-0.598-1.177c-0.311-0.264-0.714-0.396-1.21-0.396
			c-0.659,0-1.185,0.228-1.577,0.683c-0.393,0.455-0.588,1.216-0.588,2.283c0,1.187,0.199,2.024,0.598,2.514
			s0.934,0.734,1.605,0.734c0.502,0,0.913-0.143,1.233-0.429c0.32-0.285,0.546-0.776,0.678-1.474l2.598,0.443
			c-0.27,1.192-0.788,2.093-1.553,2.701c-0.766,0.609-1.792,0.913-3.078,0.913c-1.462,0-2.628-0.461-3.498-1.384
			c-0.869-0.922-1.304-2.199-1.304-3.831c0-1.65,0.436-2.936,1.309-3.855c0.872-0.919,2.052-1.379,3.54-1.379
			c1.218,0,2.186,0.262,2.904,0.786S124.704,476.944,125.018,478.017z"/>
		<path fill="#FFFFFF" d="M127.023,473.706v-2.447h2.646v2.447H127.023z M127.023,485.059v-9.998h2.646v9.998H127.023z"/>
		<path fill="#FFFFFF" d="M134.357,478.112l-2.4-0.434c0.27-0.966,0.734-1.682,1.393-2.146c0.659-0.464,1.638-0.696,2.937-0.696
			c1.18,0,2.059,0.14,2.636,0.419c0.577,0.279,0.984,0.634,1.219,1.063s0.353,1.22,0.353,2.368l-0.028,3.088
			c0,0.878,0.042,1.526,0.127,1.943c0.085,0.418,0.243,0.865,0.476,1.342h-2.617c-0.069-0.176-0.154-0.437-0.254-0.781
			c-0.044-0.157-0.075-0.261-0.094-0.311c-0.452,0.439-0.935,0.769-1.45,0.988s-1.063,0.329-1.647,0.329
			c-1.029,0-1.84-0.279-2.434-0.838c-0.593-0.559-0.89-1.265-0.89-2.118c0-0.564,0.135-1.068,0.405-1.511
			c0.27-0.442,0.648-0.781,1.135-1.017s1.188-0.44,2.104-0.616c1.236-0.232,2.093-0.449,2.57-0.65v-0.263
			c0-0.509-0.125-0.871-0.376-1.088s-0.725-0.324-1.421-0.324c-0.471,0-0.838,0.092-1.102,0.277S134.52,477.647,134.357,478.112z
			 M137.896,480.259c-0.339,0.112-0.875,0.248-1.61,0.404c-0.734,0.157-1.214,0.311-1.44,0.461
			c-0.345,0.245-0.518,0.556-0.518,0.933c0,0.37,0.138,0.69,0.414,0.96c0.276,0.271,0.628,0.405,1.055,0.405
			c0.477,0,0.932-0.157,1.365-0.471c0.32-0.239,0.53-0.53,0.631-0.876c0.069-0.226,0.104-0.655,0.104-1.29V480.259z"/>
		<path fill="#FFFFFF" d="M160.208,485.059h-3.031l-1.205-3.135h-5.517l-1.139,3.135h-2.956l5.375-13.801h2.947L160.208,485.059z
			 M155.077,479.599l-1.901-5.121l-1.864,5.121H155.077z"/>
		<path fill="#FFFFFF" d="M164.199,485.059h-2.646v-9.998h2.457v1.422c0.42-0.672,0.798-1.114,1.134-1.327
			c0.336-0.214,0.717-0.32,1.144-0.32c0.603,0,1.183,0.166,1.742,0.499l-0.819,2.307c-0.446-0.289-0.86-0.434-1.243-0.434
			c-0.37,0-0.684,0.103-0.941,0.307c-0.257,0.203-0.46,0.572-0.607,1.105c-0.148,0.534-0.221,1.651-0.221,3.352V485.059z"/>
		<path fill="#FFFFFF" d="M173.755,475.061v2.109h-1.808v4.029c0,0.815,0.017,1.291,0.052,1.426
			c0.034,0.135,0.113,0.246,0.235,0.334c0.122,0.088,0.271,0.132,0.447,0.132c0.245,0,0.599-0.085,1.063-0.254l0.226,2.052
			c-0.615,0.264-1.312,0.396-2.09,0.396c-0.477,0-0.907-0.08-1.29-0.239c-0.383-0.16-0.664-0.367-0.842-0.622
			c-0.179-0.254-0.303-0.598-0.372-1.03c-0.056-0.308-0.084-0.929-0.084-1.864v-4.358h-1.214v-2.109h1.214v-1.986l2.655-1.544v3.53
			H173.755z"/>
		<path fill="#FFFFFF" d="M175.59,473.706v-2.447h2.646v2.447H175.59z M175.59,485.059v-9.998h2.646v9.998H175.59z"/>
		<path fill="#FFFFFF" d="M179.789,475.061h1.468v-0.753c0-0.841,0.09-1.469,0.269-1.883s0.508-0.751,0.988-1.012
			c0.48-0.261,1.087-0.391,1.822-0.391c0.753,0,1.491,0.112,2.212,0.339l-0.358,1.845c-0.42-0.101-0.825-0.15-1.214-0.15
			c-0.383,0-0.658,0.09-0.824,0.269c-0.167,0.179-0.25,0.522-0.25,1.03v0.706h1.977v2.081h-1.977v7.917h-2.646v-7.917h-1.468
			V475.061z"/>
		<path fill="#FFFFFF" d="M187.367,473.706v-2.447h2.646v2.447H187.367z M187.367,485.059v-9.998h2.646v9.998H187.367z"/>
		<path fill="#FFFFFF" d="M201.442,478.017l-2.608,0.471c-0.088-0.521-0.287-0.913-0.598-1.177c-0.311-0.264-0.714-0.396-1.21-0.396
			c-0.659,0-1.185,0.228-1.577,0.683c-0.393,0.455-0.588,1.216-0.588,2.283c0,1.187,0.199,2.024,0.598,2.514
			s0.934,0.734,1.605,0.734c0.502,0,0.913-0.143,1.233-0.429c0.32-0.285,0.546-0.776,0.678-1.474l2.598,0.443
			c-0.27,1.192-0.788,2.093-1.553,2.701c-0.766,0.609-1.792,0.913-3.078,0.913c-1.462,0-2.628-0.461-3.498-1.384
			c-0.869-0.922-1.304-2.199-1.304-3.831c0-1.65,0.436-2.936,1.309-3.855c0.872-0.919,2.052-1.379,3.54-1.379
			c1.218,0,2.186,0.262,2.904,0.786S201.128,476.944,201.442,478.017z"/>
		<path fill="#FFFFFF" d="M203.447,473.706v-2.447h2.646v2.447H203.447z M203.447,485.059v-9.998h2.646v9.998H203.447z"/>
		<path fill="#FFFFFF" d="M210.781,478.112l-2.4-0.434c0.27-0.966,0.734-1.682,1.393-2.146c0.659-0.464,1.638-0.696,2.937-0.696
			c1.18,0,2.059,0.14,2.636,0.419c0.577,0.279,0.984,0.634,1.219,1.063s0.353,1.22,0.353,2.368l-0.028,3.088
			c0,0.878,0.042,1.526,0.127,1.943c0.085,0.418,0.243,0.865,0.476,1.342h-2.617c-0.069-0.176-0.154-0.437-0.254-0.781
			c-0.044-0.157-0.075-0.261-0.094-0.311c-0.452,0.439-0.935,0.769-1.45,0.988s-1.063,0.329-1.647,0.329
			c-1.029,0-1.84-0.279-2.434-0.838c-0.593-0.559-0.89-1.265-0.89-2.118c0-0.564,0.135-1.068,0.405-1.511
			c0.27-0.442,0.648-0.781,1.135-1.017s1.188-0.44,2.104-0.616c1.236-0.232,2.093-0.449,2.57-0.65v-0.263
			c0-0.509-0.125-0.871-0.376-1.088s-0.725-0.324-1.421-0.324c-0.471,0-0.838,0.092-1.102,0.277S210.944,477.647,210.781,478.112z
			 M214.32,480.259c-0.339,0.112-0.875,0.248-1.61,0.404c-0.734,0.157-1.214,0.311-1.44,0.461c-0.345,0.245-0.518,0.556-0.518,0.933
			c0,0.37,0.138,0.69,0.414,0.96c0.276,0.271,0.628,0.405,1.055,0.405c0.477,0,0.932-0.157,1.365-0.471
			c0.32-0.239,0.53-0.53,0.631-0.876c0.069-0.226,0.104-0.655,0.104-1.29V480.259z"/>
		<path fill="#FFFFFF" d="M219.526,485.059v-13.801h2.646v13.801H219.526z"/>
	</g>
	<g>
		<g enable-background="new    ">
			<path fill="#FFFFFF" d="M41.719,525.117v1.529h-5.771c0.063-0.578,0.25-1.126,0.563-1.644s0.93-1.204,1.852-2.06
				c0.742-0.691,1.197-1.16,1.365-1.406c0.227-0.34,0.34-0.676,0.34-1.008c0-0.367-0.099-0.649-0.296-0.847s-0.47-0.296-0.817-0.296
				c-0.344,0-0.617,0.104-0.82,0.311s-0.32,0.551-0.352,1.031l-1.641-0.164c0.098-0.906,0.404-1.557,0.92-1.951
				s1.16-0.592,1.934-0.592c0.848,0,1.514,0.229,1.998,0.686s0.727,1.025,0.727,1.705c0,0.387-0.069,0.755-0.208,1.104
				s-0.358,0.716-0.659,1.099c-0.199,0.254-0.559,0.619-1.078,1.096s-0.849,0.793-0.987,0.949s-0.251,0.309-0.337,0.457H41.719z"/>
			<path fill="#FFFFFF" d="M46.061,526.646v-1.729h-3.516v-1.441l3.727-5.455h1.383v5.449h1.066v1.447h-1.066v1.729H46.061z
				 M46.061,523.47v-2.936l-1.975,2.936H46.061z"/>
			<path fill="#FFFFFF" d="M56.796,524.666l1.641,0.275c-0.211,0.602-0.544,1.06-0.999,1.374s-1.024,0.472-1.708,0.472
				c-1.082,0-1.883-0.354-2.402-1.061c-0.41-0.566-0.615-1.281-0.615-2.145c0-1.031,0.27-1.839,0.809-2.423s1.221-0.876,2.045-0.876
				c0.926,0,1.656,0.306,2.191,0.917s0.791,1.548,0.768,2.81h-4.125c0.012,0.488,0.145,0.868,0.398,1.14s0.57,0.407,0.949,0.407
				c0.258,0,0.475-0.07,0.65-0.211S56.706,524.978,56.796,524.666z M56.889,523.002c-0.012-0.477-0.135-0.839-0.369-1.087
				s-0.52-0.372-0.855-0.372c-0.359,0-0.656,0.131-0.891,0.393s-0.35,0.617-0.346,1.066H56.889z"/>
			<path fill="#FFFFFF" d="M68.409,525.117v1.529h-5.771c0.063-0.578,0.25-1.126,0.563-1.644s0.93-1.204,1.852-2.06
				c0.742-0.691,1.197-1.16,1.365-1.406c0.227-0.34,0.34-0.676,0.34-1.008c0-0.367-0.099-0.649-0.296-0.847s-0.47-0.296-0.817-0.296
				c-0.344,0-0.617,0.104-0.82,0.311s-0.32,0.551-0.352,1.031l-1.641-0.164c0.098-0.906,0.404-1.557,0.92-1.951
				s1.16-0.592,1.934-0.592c0.848,0,1.514,0.229,1.998,0.686s0.727,1.025,0.727,1.705c0,0.387-0.069,0.755-0.208,1.104
				s-0.358,0.716-0.659,1.099c-0.199,0.254-0.559,0.619-1.078,1.096s-0.849,0.793-0.987,0.949s-0.251,0.309-0.337,0.457H68.409z"/>
			<path fill="#FFFFFF" d="M69.546,524.437l1.641-0.17c0.047,0.371,0.186,0.665,0.416,0.882s0.496,0.325,0.797,0.325
				c0.344,0,0.635-0.14,0.873-0.419s0.357-0.7,0.357-1.263c0-0.527-0.118-0.923-0.354-1.187s-0.544-0.396-0.923-0.396
				c-0.473,0-0.896,0.209-1.271,0.627l-1.336-0.193l0.844-4.471h4.354v1.541h-3.105l-0.258,1.459
				c0.367-0.184,0.742-0.275,1.125-0.275c0.73,0,1.35,0.266,1.857,0.797s0.762,1.221,0.762,2.068c0,0.707-0.205,1.338-0.615,1.893
				c-0.559,0.758-1.334,1.137-2.326,1.137c-0.793,0-1.439-0.213-1.939-0.639S69.643,525.156,69.546,524.437z"/>
			<path fill="#FFFFFF" d="M85.589,526.646h-1.529v-0.914c-0.254,0.355-0.554,0.62-0.899,0.794s-0.694,0.261-1.046,0.261
				c-0.715,0-1.327-0.288-1.837-0.864s-0.765-1.38-0.765-2.411c0-1.055,0.248-1.856,0.744-2.405s1.123-0.823,1.881-0.823
				c0.695,0,1.297,0.289,1.805,0.867v-3.094h1.646V526.646z M81.194,523.4c0,0.664,0.092,1.145,0.275,1.441
				c0.266,0.43,0.637,0.645,1.113,0.645c0.379,0,0.701-0.161,0.967-0.483s0.398-0.804,0.398-1.444c0-0.715-0.129-1.229-0.387-1.544
				s-0.588-0.472-0.99-0.472c-0.391,0-0.718,0.155-0.981,0.466S81.194,522.783,81.194,523.4z"/>
			<path fill="#FFFFFF" d="M90.815,524.666l1.641,0.275c-0.211,0.602-0.544,1.06-0.999,1.374s-1.024,0.472-1.708,0.472
				c-1.082,0-1.883-0.354-2.402-1.061c-0.41-0.566-0.615-1.281-0.615-2.145c0-1.031,0.27-1.839,0.809-2.423s1.221-0.876,2.045-0.876
				c0.926,0,1.656,0.306,2.191,0.917s0.791,1.548,0.768,2.81h-4.125c0.012,0.488,0.145,0.868,0.398,1.14s0.57,0.407,0.949,0.407
				c0.258,0,0.475-0.07,0.65-0.211S90.725,524.978,90.815,524.666z M90.909,523.002c-0.012-0.477-0.135-0.839-0.369-1.087
				s-0.52-0.372-0.855-0.372c-0.359,0-0.656,0.131-0.891,0.393s-0.35,0.617-0.346,1.066H90.909z"/>
			<path fill="#FFFFFF" d="M96.639,524.871l1.652-0.252c0.07,0.32,0.213,0.563,0.428,0.729s0.516,0.249,0.902,0.249
				c0.426,0,0.746-0.078,0.961-0.234c0.145-0.109,0.217-0.256,0.217-0.439c0-0.125-0.039-0.229-0.117-0.311
				c-0.082-0.078-0.266-0.15-0.551-0.217c-1.328-0.293-2.17-0.561-2.525-0.803c-0.492-0.336-0.738-0.803-0.738-1.4
				c0-0.539,0.213-0.992,0.639-1.359s1.086-0.551,1.98-0.551c0.852,0,1.484,0.139,1.898,0.416s0.699,0.688,0.855,1.23l-1.553,0.287
				c-0.066-0.242-0.192-0.428-0.378-0.557s-0.45-0.193-0.794-0.193c-0.434,0-0.744,0.061-0.932,0.182
				c-0.125,0.086-0.188,0.197-0.188,0.334c0,0.117,0.055,0.217,0.164,0.299c0.148,0.109,0.661,0.264,1.538,0.463
				s1.489,0.443,1.837,0.732c0.344,0.293,0.516,0.701,0.516,1.225c0,0.57-0.238,1.061-0.715,1.471s-1.182,0.615-2.115,0.615
				c-0.848,0-1.519-0.172-2.013-0.516S96.792,525.461,96.639,524.871z"/>
			<path fill="#FFFFFF" d="M107.497,524.666l1.641,0.275c-0.211,0.602-0.544,1.06-0.999,1.374s-1.024,0.472-1.708,0.472
				c-1.082,0-1.883-0.354-2.402-1.061c-0.41-0.566-0.615-1.281-0.615-2.145c0-1.031,0.27-1.839,0.809-2.423s1.221-0.876,2.045-0.876
				c0.926,0,1.656,0.306,2.191,0.917s0.791,1.548,0.768,2.81H105.1c0.012,0.488,0.145,0.868,0.398,1.14s0.57,0.407,0.949,0.407
				c0.258,0,0.475-0.07,0.65-0.211S107.407,524.978,107.497,524.666z M107.591,523.002c-0.012-0.477-0.135-0.839-0.369-1.087
				s-0.52-0.372-0.855-0.372c-0.359,0-0.656,0.131-0.891,0.393s-0.35,0.617-0.346,1.066H107.591z"/>
			<path fill="#FFFFFF" d="M113.421,520.424v1.313h-1.125v2.508c0,0.508,0.011,0.804,0.032,0.888s0.07,0.153,0.146,0.208
				s0.169,0.082,0.278,0.082c0.152,0,0.373-0.053,0.662-0.158l0.141,1.277c-0.383,0.164-0.816,0.246-1.301,0.246
				c-0.297,0-0.564-0.05-0.803-0.149s-0.413-0.229-0.524-0.387s-0.188-0.372-0.231-0.642c-0.035-0.191-0.053-0.578-0.053-1.16
				v-2.713h-0.756v-1.313h0.756v-1.236l1.652-0.961v2.197H113.421z"/>
			<path fill="#FFFFFF" d="M118.167,524.666l1.641,0.275c-0.211,0.602-0.544,1.06-0.999,1.374s-1.024,0.472-1.708,0.472
				c-1.082,0-1.883-0.354-2.402-1.061c-0.41-0.566-0.615-1.281-0.615-2.145c0-1.031,0.27-1.839,0.809-2.423s1.221-0.876,2.045-0.876
				c0.926,0,1.656,0.306,2.191,0.917s0.791,1.548,0.768,2.81h-4.125c0.012,0.488,0.145,0.868,0.398,1.14s0.57,0.407,0.949,0.407
				c0.258,0,0.475-0.07,0.65-0.211S118.077,524.978,118.167,524.666z M118.26,523.002c-0.012-0.477-0.135-0.839-0.369-1.087
				s-0.52-0.372-0.855-0.372c-0.359,0-0.656,0.131-0.891,0.393s-0.35,0.617-0.346,1.066H118.26z"/>
			<path fill="#FFFFFF" d="M121.114,520.424h1.518v0.85c0.543-0.66,1.189-0.99,1.939-0.99c0.398,0,0.744,0.082,1.037,0.246
				s0.533,0.412,0.721,0.744c0.273-0.332,0.568-0.58,0.885-0.744s0.654-0.246,1.014-0.246c0.457,0,0.844,0.093,1.16,0.278
				s0.553,0.458,0.709,0.817c0.113,0.266,0.17,0.695,0.17,1.289v3.979h-1.646v-3.557c0-0.617-0.057-1.016-0.17-1.195
				c-0.152-0.234-0.387-0.352-0.703-0.352c-0.23,0-0.447,0.07-0.65,0.211s-0.35,0.347-0.439,0.618s-0.135,0.7-0.135,1.286v2.988
				h-1.646v-3.41c0-0.605-0.029-0.996-0.088-1.172s-0.149-0.307-0.272-0.393s-0.29-0.129-0.501-0.129
				c-0.254,0-0.482,0.068-0.686,0.205s-0.349,0.334-0.437,0.592s-0.132,0.686-0.132,1.283v3.023h-1.646V520.424z"/>
			<path fill="#FFFFFF" d="M131.837,526.646v-8.59h1.646v3.094c0.508-0.578,1.109-0.867,1.805-0.867
				c0.758,0,1.385,0.274,1.881,0.823s0.744,1.337,0.744,2.364c0,1.063-0.253,1.881-0.759,2.455s-1.12,0.861-1.843,0.861
				c-0.355,0-0.706-0.089-1.052-0.267s-0.644-0.44-0.894-0.788v0.914H131.837z M133.471,523.4c0,0.645,0.102,1.121,0.305,1.43
				c0.285,0.438,0.664,0.656,1.137,0.656c0.363,0,0.673-0.155,0.929-0.466s0.384-0.8,0.384-1.468c0-0.711-0.129-1.224-0.387-1.538
				s-0.588-0.472-0.99-0.472c-0.395,0-0.723,0.153-0.984,0.46S133.471,522.775,133.471,523.4z"/>
			<path fill="#FFFFFF" d="M140.813,526.646h-1.646v-6.223h1.529v0.885c0.262-0.418,0.497-0.693,0.706-0.826
				s0.446-0.199,0.712-0.199c0.375,0,0.736,0.104,1.084,0.311l-0.51,1.436c-0.277-0.18-0.535-0.27-0.773-0.27
				c-0.23,0-0.426,0.063-0.586,0.19s-0.286,0.356-0.378,0.688s-0.138,1.027-0.138,2.086V526.646z"/>
			<path fill="#FFFFFF" d="M143.526,523.447c0-0.547,0.135-1.076,0.404-1.588s0.651-0.902,1.146-1.172s1.046-0.404,1.655-0.404
				c0.941,0,1.713,0.306,2.314,0.917s0.902,1.384,0.902,2.317c0,0.941-0.304,1.722-0.911,2.341s-1.372,0.929-2.294,0.929
				c-0.57,0-1.114-0.129-1.632-0.387s-0.911-0.636-1.181-1.134S143.526,524.162,143.526,523.447z M145.214,523.535
				c0,0.617,0.146,1.09,0.439,1.418s0.654,0.492,1.084,0.492s0.79-0.164,1.081-0.492s0.437-0.805,0.437-1.43
				c0-0.609-0.146-1.078-0.437-1.406s-0.651-0.492-1.081-0.492s-0.791,0.164-1.084,0.492S145.214,522.918,145.214,523.535z"/>
			<path fill="#FFFFFF" d="M160.278,526.646h-1.529v-0.914c-0.254,0.355-0.554,0.62-0.899,0.794s-0.694,0.261-1.046,0.261
				c-0.715,0-1.327-0.288-1.837-0.864s-0.765-1.38-0.765-2.411c0-1.055,0.248-1.856,0.744-2.405s1.123-0.823,1.881-0.823
				c0.695,0,1.297,0.289,1.805,0.867v-3.094h1.646V526.646z M155.884,523.4c0,0.664,0.092,1.145,0.275,1.441
				c0.266,0.43,0.637,0.645,1.113,0.645c0.379,0,0.701-0.161,0.967-0.483s0.398-0.804,0.398-1.444c0-0.715-0.129-1.229-0.387-1.544
				s-0.588-0.472-0.99-0.472c-0.391,0-0.718,0.155-0.981,0.466S155.884,522.783,155.884,523.4z"/>
			<path fill="#FFFFFF" d="M165.505,524.666l1.641,0.275c-0.211,0.602-0.544,1.06-0.999,1.374s-1.024,0.472-1.708,0.472
				c-1.082,0-1.883-0.354-2.402-1.061c-0.41-0.566-0.615-1.281-0.615-2.145c0-1.031,0.27-1.839,0.809-2.423s1.221-0.876,2.045-0.876
				c0.926,0,1.656,0.306,2.191,0.917s0.791,1.548,0.768,2.81h-4.125c0.012,0.488,0.145,0.868,0.398,1.14s0.57,0.407,0.949,0.407
				c0.258,0,0.475-0.07,0.65-0.211S165.415,524.978,165.505,524.666z M165.598,523.002c-0.012-0.477-0.135-0.839-0.369-1.087
				s-0.52-0.372-0.855-0.372c-0.359,0-0.656,0.131-0.891,0.393s-0.35,0.617-0.346,1.066H165.598z"/>
			<path fill="#FFFFFF" d="M177.118,525.117v1.529h-5.771c0.063-0.578,0.25-1.126,0.563-1.644s0.93-1.204,1.852-2.06
				c0.742-0.691,1.197-1.16,1.365-1.406c0.227-0.34,0.34-0.676,0.34-1.008c0-0.367-0.099-0.649-0.296-0.847s-0.47-0.296-0.817-0.296
				c-0.344,0-0.617,0.104-0.82,0.311s-0.32,0.551-0.352,1.031l-1.641-0.164c0.098-0.906,0.404-1.557,0.92-1.951
				s1.16-0.592,1.934-0.592c0.848,0,1.514,0.229,1.998,0.686s0.727,1.025,0.727,1.705c0,0.387-0.069,0.755-0.208,1.104
				s-0.358,0.716-0.659,1.099c-0.199,0.254-0.559,0.619-1.078,1.096s-0.849,0.793-0.987,0.949s-0.251,0.309-0.337,0.457H177.118z"/>
			<path fill="#FFFFFF" d="M181.014,518.021c0.832,0,1.482,0.297,1.951,0.891c0.559,0.703,0.838,1.869,0.838,3.498
				c0,1.625-0.281,2.793-0.844,3.504c-0.465,0.586-1.113,0.879-1.945,0.879c-0.836,0-1.51-0.321-2.021-0.964
				s-0.768-1.788-0.768-3.437c0-1.617,0.281-2.781,0.844-3.492C179.534,518.314,180.182,518.021,181.014,518.021z M181.014,519.386
				c-0.199,0-0.377,0.063-0.533,0.19s-0.277,0.354-0.363,0.683c-0.113,0.426-0.17,1.143-0.17,2.15s0.051,1.7,0.152,2.077
				s0.229,0.628,0.384,0.753s0.331,0.188,0.53,0.188s0.377-0.063,0.533-0.19s0.277-0.354,0.363-0.683
				c0.113-0.422,0.17-1.137,0.17-2.145s-0.051-1.7-0.152-2.077s-0.229-0.629-0.384-0.756S181.214,519.386,181.014,519.386z"/>
			<path fill="#FFFFFF" d="M190.466,525.117v1.529h-5.771c0.063-0.578,0.25-1.126,0.563-1.644s0.93-1.204,1.852-2.06
				c0.742-0.691,1.197-1.16,1.365-1.406c0.227-0.34,0.34-0.676,0.34-1.008c0-0.367-0.099-0.649-0.296-0.847s-0.47-0.296-0.817-0.296
				c-0.344,0-0.617,0.104-0.82,0.311s-0.32,0.551-0.352,1.031l-1.641-0.164c0.098-0.906,0.404-1.557,0.92-1.951
				s1.16-0.592,1.934-0.592c0.848,0,1.514,0.229,1.998,0.686s0.727,1.025,0.727,1.705c0,0.387-0.069,0.755-0.208,1.104
				s-0.358,0.716-0.659,1.099c-0.199,0.254-0.559,0.619-1.078,1.096s-0.849,0.793-0.987,0.949s-0.251,0.309-0.337,0.457H190.466z"/>
			<path fill="#FFFFFF" d="M191.602,524.437l1.641-0.17c0.047,0.371,0.186,0.665,0.416,0.882s0.496,0.325,0.797,0.325
				c0.344,0,0.635-0.14,0.873-0.419s0.357-0.7,0.357-1.263c0-0.527-0.118-0.923-0.354-1.187s-0.544-0.396-0.923-0.396
				c-0.473,0-0.896,0.209-1.271,0.627l-1.336-0.193l0.844-4.471h4.354v1.541h-3.105l-0.258,1.459
				c0.367-0.184,0.742-0.275,1.125-0.275c0.73,0,1.35,0.266,1.857,0.797s0.762,1.221,0.762,2.068c0,0.707-0.205,1.338-0.615,1.893
				c-0.559,0.758-1.334,1.137-2.326,1.137c-0.793,0-1.439-0.213-1.939-0.639S191.7,525.156,191.602,524.437z"/>
		</g>
	</g>
	<g>
		<g enable-background="new    ">
			<path fill="#FFFFFF" d="M36.565,508.286v-8.59H38.3v8.59H36.565z"/>
			<path fill="#FFFFFF" d="M45.6,508.286h-1.646v-3.176c0-0.672-0.035-1.106-0.105-1.304s-0.185-0.351-0.343-0.46
				s-0.349-0.164-0.571-0.164c-0.285,0-0.541,0.078-0.768,0.234s-0.382,0.363-0.466,0.621s-0.126,0.734-0.126,1.43v2.818h-1.646
				v-6.223h1.529v0.914c0.543-0.703,1.227-1.055,2.051-1.055c0.363,0,0.695,0.065,0.996,0.196s0.528,0.298,0.683,0.501
				s0.262,0.434,0.322,0.691s0.091,0.627,0.091,1.107V508.286z"/>
			<path fill="#FFFFFF" d="M46.69,506.51l1.652-0.252c0.07,0.32,0.213,0.563,0.428,0.729s0.516,0.249,0.902,0.249
				c0.426,0,0.746-0.078,0.961-0.234c0.145-0.109,0.217-0.256,0.217-0.439c0-0.125-0.039-0.229-0.117-0.311
				c-0.082-0.078-0.266-0.15-0.551-0.217c-1.328-0.293-2.17-0.561-2.525-0.803c-0.492-0.336-0.738-0.803-0.738-1.4
				c0-0.539,0.213-0.992,0.639-1.359s1.086-0.551,1.98-0.551c0.852,0,1.484,0.139,1.898,0.416s0.699,0.688,0.855,1.23l-1.553,0.287
				c-0.066-0.242-0.192-0.428-0.378-0.557s-0.45-0.193-0.794-0.193c-0.434,0-0.744,0.061-0.932,0.182
				c-0.125,0.086-0.188,0.197-0.188,0.334c0,0.117,0.055,0.217,0.164,0.299c0.148,0.109,0.661,0.264,1.538,0.463
				s1.489,0.443,1.837,0.732c0.344,0.293,0.516,0.701,0.516,1.225c0,0.57-0.238,1.061-0.715,1.471s-1.182,0.615-2.115,0.615
				c-0.848,0-1.519-0.172-2.013-0.516S46.843,507.1,46.69,506.51z"/>
			<path fill="#FFFFFF" d="M56.798,502.063v1.313h-1.125v2.508c0,0.508,0.011,0.804,0.032,0.888s0.07,0.153,0.146,0.208
				s0.169,0.082,0.278,0.082c0.152,0,0.373-0.053,0.662-0.158l0.141,1.277c-0.383,0.164-0.816,0.246-1.301,0.246
				c-0.297,0-0.564-0.05-0.803-0.149s-0.413-0.229-0.524-0.387s-0.188-0.372-0.231-0.642c-0.035-0.191-0.053-0.578-0.053-1.16
				v-2.713h-0.756v-1.313h0.756v-1.236l1.652-0.961v2.197H56.798z"/>
			<path fill="#FFFFFF" d="M57.94,501.219v-1.523h1.646v1.523H57.94z M57.94,508.286v-6.223h1.646v6.223H57.94z"/>
			<path fill="#FFFFFF" d="M64.128,502.063v1.313h-1.125v2.508c0,0.508,0.011,0.804,0.032,0.888s0.07,0.153,0.146,0.208
				s0.169,0.082,0.278,0.082c0.152,0,0.373-0.053,0.662-0.158l0.141,1.277c-0.383,0.164-0.816,0.246-1.301,0.246
				c-0.297,0-0.564-0.05-0.803-0.149s-0.413-0.229-0.524-0.387s-0.188-0.372-0.231-0.642c-0.035-0.191-0.053-0.578-0.053-1.16
				v-2.713h-0.756v-1.313h0.756v-1.236l1.652-0.961v2.197H64.128z"/>
			<path fill="#FFFFFF" d="M69.366,508.286v-0.932c-0.227,0.332-0.524,0.594-0.894,0.785s-0.759,0.287-1.169,0.287
				c-0.418,0-0.793-0.092-1.125-0.275s-0.572-0.441-0.721-0.773s-0.223-0.791-0.223-1.377v-3.938h1.646v2.859
				c0,0.875,0.03,1.411,0.091,1.608s0.171,0.354,0.331,0.469s0.363,0.173,0.609,0.173c0.281,0,0.533-0.077,0.756-0.231
				s0.375-0.346,0.457-0.574s0.123-0.788,0.123-1.679v-2.625h1.646v6.223H69.366z"/>
			<path fill="#FFFFFF" d="M75.454,502.063v1.313h-1.125v2.508c0,0.508,0.011,0.804,0.032,0.888s0.07,0.153,0.146,0.208
				s0.169,0.082,0.278,0.082c0.152,0,0.373-0.053,0.662-0.158l0.141,1.277c-0.383,0.164-0.816,0.246-1.301,0.246
				c-0.297,0-0.564-0.05-0.803-0.149s-0.413-0.229-0.524-0.387s-0.188-0.372-0.231-0.642c-0.035-0.191-0.053-0.578-0.053-1.16
				v-2.713h-0.756v-1.313h0.756v-1.236l1.652-0.961v2.197H75.454z"/>
			<path fill="#FFFFFF" d="M76.216,505.087c0-0.547,0.135-1.076,0.404-1.588s0.651-0.902,1.146-1.172s1.046-0.404,1.655-0.404
				c0.941,0,1.713,0.306,2.314,0.917s0.902,1.384,0.902,2.317c0,0.941-0.304,1.722-0.911,2.341s-1.372,0.929-2.294,0.929
				c-0.57,0-1.114-0.129-1.632-0.387s-0.911-0.636-1.181-1.134S76.216,505.802,76.216,505.087z M77.903,505.175
				c0,0.617,0.146,1.09,0.439,1.418s0.654,0.492,1.084,0.492s0.79-0.164,1.081-0.492s0.437-0.805,0.437-1.43
				c0-0.609-0.146-1.078-0.437-1.406s-0.651-0.492-1.081-0.492s-0.791,0.164-1.084,0.492S77.903,504.557,77.903,505.175z"/>
			<path fill="#FFFFFF" d="M87.284,508.286v-8.59h5.889v1.453h-4.154v2.033h3.586v1.453h-3.586v3.65H87.284z"/>
			<path fill="#FFFFFF" d="M98.194,506.305l1.641,0.275c-0.211,0.602-0.544,1.06-0.999,1.374s-1.024,0.472-1.708,0.472
				c-1.082,0-1.883-0.354-2.402-1.061c-0.41-0.566-0.615-1.281-0.615-2.145c0-1.031,0.27-1.839,0.809-2.423s1.221-0.876,2.045-0.876
				c0.926,0,1.656,0.306,2.191,0.917s0.791,1.548,0.768,2.81h-4.125c0.012,0.488,0.145,0.868,0.398,1.14s0.57,0.407,0.949,0.407
				c0.258,0,0.475-0.07,0.65-0.211S98.104,506.618,98.194,506.305z M98.288,504.641c-0.012-0.477-0.135-0.839-0.369-1.087
				s-0.52-0.372-0.855-0.372c-0.359,0-0.656,0.131-0.891,0.393s-0.35,0.617-0.346,1.066H98.288z"/>
			<path fill="#FFFFFF" d="M106.971,508.286h-1.529v-0.914c-0.254,0.355-0.554,0.62-0.899,0.794s-0.694,0.261-1.046,0.261
				c-0.715,0-1.327-0.288-1.837-0.864s-0.765-1.38-0.765-2.411c0-1.055,0.248-1.856,0.744-2.405s1.123-0.823,1.881-0.823
				c0.695,0,1.297,0.289,1.805,0.867v-3.094h1.646V508.286z M102.577,505.04c0,0.664,0.092,1.145,0.275,1.441
				c0.266,0.43,0.637,0.645,1.113,0.645c0.379,0,0.701-0.161,0.967-0.483s0.398-0.804,0.398-1.444c0-0.715-0.129-1.229-0.387-1.544
				s-0.588-0.472-0.99-0.472c-0.391,0-0.718,0.155-0.981,0.466S102.577,504.423,102.577,505.04z"/>
			<path fill="#FFFFFF" d="M112.198,506.305l1.641,0.275c-0.211,0.602-0.544,1.06-0.999,1.374s-1.024,0.472-1.708,0.472
				c-1.082,0-1.883-0.354-2.402-1.061c-0.41-0.566-0.615-1.281-0.615-2.145c0-1.031,0.27-1.839,0.809-2.423s1.221-0.876,2.045-0.876
				c0.926,0,1.656,0.306,2.191,0.917s0.791,1.548,0.768,2.81h-4.125c0.012,0.488,0.145,0.868,0.398,1.14s0.57,0.407,0.949,0.407
				c0.258,0,0.475-0.07,0.65-0.211S112.108,506.618,112.198,506.305z M112.292,504.641c-0.012-0.477-0.135-0.839-0.369-1.087
				s-0.52-0.372-0.855-0.372c-0.359,0-0.656,0.131-0.891,0.393s-0.35,0.617-0.346,1.066H112.292z"/>
			<path fill="#FFFFFF" d="M116.844,508.286h-1.646v-6.223h1.529v0.885c0.262-0.418,0.497-0.693,0.706-0.826
				s0.446-0.199,0.712-0.199c0.375,0,0.736,0.104,1.084,0.311l-0.51,1.436c-0.277-0.18-0.535-0.27-0.773-0.27
				c-0.23,0-0.426,0.063-0.586,0.19s-0.286,0.356-0.378,0.688s-0.138,1.027-0.138,2.086V508.286z"/>
			<path fill="#FFFFFF" d="M121.169,503.962l-1.494-0.27c0.168-0.602,0.457-1.047,0.867-1.336s1.02-0.434,1.828-0.434
				c0.734,0,1.281,0.087,1.641,0.261s0.612,0.395,0.759,0.662s0.22,0.759,0.22,1.474l-0.018,1.922c0,0.547,0.026,0.95,0.079,1.21
				s0.151,0.538,0.296,0.835h-1.629c-0.043-0.109-0.096-0.271-0.158-0.486c-0.027-0.098-0.047-0.162-0.059-0.193
				c-0.281,0.273-0.582,0.479-0.902,0.615s-0.662,0.205-1.025,0.205c-0.641,0-1.146-0.174-1.515-0.521s-0.554-0.787-0.554-1.318
				c0-0.352,0.084-0.665,0.252-0.94s0.403-0.486,0.706-0.633s0.739-0.274,1.31-0.384c0.77-0.145,1.303-0.279,1.6-0.404v-0.164
				c0-0.316-0.078-0.542-0.234-0.677s-0.451-0.202-0.885-0.202c-0.293,0-0.521,0.058-0.686,0.173S121.27,503.673,121.169,503.962z
				 M123.372,505.298c-0.211,0.07-0.545,0.154-1.002,0.252s-0.756,0.193-0.896,0.287c-0.215,0.152-0.322,0.346-0.322,0.58
				c0,0.23,0.086,0.43,0.258,0.598s0.391,0.252,0.656,0.252c0.297,0,0.58-0.098,0.85-0.293c0.199-0.148,0.33-0.33,0.393-0.545
				c0.043-0.141,0.064-0.408,0.064-0.803V505.298z"/>
			<path fill="#FFFFFF" d="M126.612,508.286v-8.59h1.646v8.59H126.612z"/>
			<path fill="#FFFFFF" d="M138.987,508.286h-1.529v-0.914c-0.254,0.355-0.554,0.62-0.899,0.794s-0.694,0.261-1.046,0.261
				c-0.715,0-1.327-0.288-1.837-0.864s-0.765-1.38-0.765-2.411c0-1.055,0.248-1.856,0.744-2.405s1.123-0.823,1.881-0.823
				c0.695,0,1.297,0.289,1.805,0.867v-3.094h1.646V508.286z M134.593,505.04c0,0.664,0.092,1.145,0.275,1.441
				c0.266,0.43,0.637,0.645,1.113,0.645c0.379,0,0.701-0.161,0.967-0.483s0.398-0.804,0.398-1.444c0-0.715-0.129-1.229-0.387-1.544
				s-0.588-0.472-0.99-0.472c-0.391,0-0.718,0.155-0.981,0.466S134.593,504.423,134.593,505.04z"/>
			<path fill="#FFFFFF" d="M140.229,505.087c0-0.547,0.135-1.076,0.404-1.588s0.651-0.902,1.146-1.172s1.046-0.404,1.655-0.404
				c0.941,0,1.713,0.306,2.314,0.917s0.902,1.384,0.902,2.317c0,0.941-0.304,1.722-0.911,2.341s-1.372,0.929-2.294,0.929
				c-0.57,0-1.114-0.129-1.632-0.387s-0.911-0.636-1.181-1.134S140.229,505.802,140.229,505.087z M141.917,505.175
				c0,0.617,0.146,1.09,0.439,1.418s0.654,0.492,1.084,0.492s0.79-0.164,1.081-0.492s0.437-0.805,0.437-1.43
				c0-0.609-0.146-1.078-0.437-1.406s-0.651-0.492-1.081-0.492s-0.791,0.164-1.084,0.492S141.917,504.557,141.917,505.175z"/>
			<path fill="#FFFFFF" d="M151.286,508.286v-8.59h6.369v1.453h-4.635v1.904h4.313v1.447h-4.313v2.338h4.799v1.447H151.286z"/>
			<path fill="#FFFFFF" d="M158.698,506.51l1.652-0.252c0.07,0.32,0.213,0.563,0.428,0.729s0.516,0.249,0.902,0.249
				c0.426,0,0.746-0.078,0.961-0.234c0.145-0.109,0.217-0.256,0.217-0.439c0-0.125-0.039-0.229-0.117-0.311
				c-0.082-0.078-0.266-0.15-0.551-0.217c-1.328-0.293-2.17-0.561-2.525-0.803c-0.492-0.336-0.738-0.803-0.738-1.4
				c0-0.539,0.213-0.992,0.639-1.359s1.086-0.551,1.98-0.551c0.852,0,1.484,0.139,1.898,0.416s0.699,0.688,0.855,1.23l-1.553,0.287
				c-0.066-0.242-0.192-0.428-0.378-0.557s-0.45-0.193-0.794-0.193c-0.434,0-0.744,0.061-0.932,0.182
				c-0.125,0.086-0.188,0.197-0.188,0.334c0,0.117,0.055,0.217,0.164,0.299c0.148,0.109,0.661,0.264,1.538,0.463
				s1.489,0.443,1.837,0.732c0.344,0.293,0.516,0.701,0.516,1.225c0,0.57-0.238,1.061-0.715,1.471s-1.182,0.615-2.115,0.615
				c-0.848,0-1.519-0.172-2.013-0.516S158.85,507.1,158.698,506.51z"/>
			<path fill="#FFFFFF" d="M165.905,502.063h1.535v0.914c0.199-0.313,0.469-0.566,0.809-0.762s0.717-0.293,1.131-0.293
				c0.723,0,1.336,0.283,1.84,0.85s0.756,1.355,0.756,2.367c0,1.039-0.254,1.847-0.762,2.423s-1.123,0.864-1.846,0.864
				c-0.344,0-0.655-0.068-0.935-0.205s-0.573-0.371-0.882-0.703v3.135h-1.646V502.063z M167.534,505.069
				c0,0.699,0.139,1.216,0.416,1.55s0.615,0.501,1.014,0.501c0.383,0,0.701-0.153,0.955-0.46s0.381-0.81,0.381-1.509
				c0-0.652-0.131-1.137-0.393-1.453s-0.586-0.475-0.973-0.475c-0.402,0-0.736,0.155-1.002,0.466S167.534,504.46,167.534,505.069z"
				/>
			<path fill="#FFFFFF" d="M173.159,501.302l0.809-1.752h1.846l-1.611,1.752H173.159z M173.282,508.286v-6.223h1.646v6.223H173.282z
				"/>
			<path fill="#FFFFFF" d="M178.192,508.286h-1.646v-6.223h1.529v0.885c0.262-0.418,0.497-0.693,0.706-0.826
				s0.446-0.199,0.712-0.199c0.375,0,0.736,0.104,1.084,0.311l-0.51,1.436c-0.277-0.18-0.535-0.27-0.773-0.27
				c-0.23,0-0.426,0.063-0.586,0.19s-0.286,0.356-0.378,0.688s-0.138,1.027-0.138,2.086V508.286z"/>
			<path fill="#FFFFFF" d="M181.286,501.219v-1.523h1.646v1.523H181.286z M181.286,508.286v-6.223h1.646v6.223H181.286z"/>
			<path fill="#FFFFFF" d="M187.473,502.063v1.313h-1.125v2.508c0,0.508,0.011,0.804,0.032,0.888s0.07,0.153,0.146,0.208
				s0.169,0.082,0.278,0.082c0.152,0,0.373-0.053,0.662-0.158l0.141,1.277c-0.383,0.164-0.816,0.246-1.301,0.246
				c-0.297,0-0.564-0.05-0.803-0.149s-0.413-0.229-0.524-0.387s-0.188-0.372-0.231-0.642c-0.035-0.191-0.053-0.578-0.053-1.16
				v-2.713h-0.756v-1.313h0.756v-1.236l1.652-0.961v2.197H187.473z"/>
			<path fill="#FFFFFF" d="M188.235,505.087c0-0.547,0.135-1.076,0.404-1.588s0.651-0.902,1.146-1.172s1.046-0.404,1.655-0.404
				c0.941,0,1.713,0.306,2.314,0.917s0.902,1.384,0.902,2.317c0,0.941-0.304,1.722-0.911,2.341s-1.372,0.929-2.294,0.929
				c-0.57,0-1.114-0.129-1.632-0.387s-0.911-0.636-1.181-1.134S188.235,505.802,188.235,505.087z M189.923,505.175
				c0,0.617,0.146,1.09,0.439,1.418s0.654,0.492,1.084,0.492s0.79-0.164,1.081-0.492s0.437-0.805,0.437-1.43
				c0-0.609-0.146-1.078-0.437-1.406s-0.651-0.492-1.081-0.492s-0.791,0.164-1.084,0.492S189.923,504.557,189.923,505.175z"/>
			<path fill="#FFFFFF" d="M198.852,505.491l1.688-0.164c0.102,0.566,0.308,0.982,0.618,1.248s0.729,0.398,1.257,0.398
				c0.559,0,0.979-0.118,1.263-0.354s0.425-0.513,0.425-0.829c0-0.203-0.06-0.376-0.179-0.519s-0.327-0.267-0.624-0.372
				c-0.203-0.07-0.666-0.195-1.389-0.375c-0.93-0.23-1.582-0.514-1.957-0.85c-0.527-0.473-0.791-1.049-0.791-1.729
				c0-0.438,0.124-0.847,0.372-1.228s0.605-0.671,1.072-0.87s1.03-0.299,1.69-0.299c1.078,0,1.89,0.236,2.435,0.709
				s0.831,1.104,0.858,1.893l-1.734,0.076c-0.074-0.441-0.233-0.759-0.478-0.952s-0.61-0.29-1.099-0.29
				c-0.504,0-0.898,0.104-1.184,0.311c-0.184,0.133-0.275,0.311-0.275,0.533c0,0.203,0.086,0.377,0.258,0.521
				c0.219,0.184,0.75,0.375,1.594,0.574s1.468,0.405,1.872,0.618s0.721,0.504,0.949,0.873s0.343,0.825,0.343,1.368
				c0,0.492-0.137,0.953-0.41,1.383s-0.66,0.749-1.16,0.958s-1.123,0.313-1.869,0.313c-1.086,0-1.92-0.251-2.502-0.753
				S198.966,506.452,198.852,505.491z"/>
			<path fill="#FFFFFF" d="M208.514,503.962l-1.494-0.27c0.168-0.602,0.457-1.047,0.867-1.336s1.02-0.434,1.828-0.434
				c0.734,0,1.281,0.087,1.641,0.261s0.612,0.395,0.759,0.662s0.22,0.759,0.22,1.474l-0.018,1.922c0,0.547,0.026,0.95,0.079,1.21
				s0.151,0.538,0.296,0.835h-1.629c-0.043-0.109-0.096-0.271-0.158-0.486c-0.027-0.098-0.047-0.162-0.059-0.193
				c-0.281,0.273-0.582,0.479-0.902,0.615s-0.662,0.205-1.025,0.205c-0.641,0-1.146-0.174-1.515-0.521s-0.554-0.787-0.554-1.318
				c0-0.352,0.084-0.665,0.252-0.94s0.403-0.486,0.706-0.633s0.739-0.274,1.31-0.384c0.77-0.145,1.303-0.279,1.6-0.404v-0.164
				c0-0.316-0.078-0.542-0.234-0.677s-0.451-0.202-0.885-0.202c-0.293,0-0.521,0.058-0.686,0.173S208.616,503.673,208.514,503.962z
				 M210.718,505.298c-0.211,0.07-0.545,0.154-1.002,0.252s-0.756,0.193-0.896,0.287c-0.215,0.152-0.322,0.346-0.322,0.58
				c0,0.23,0.086,0.43,0.258,0.598s0.391,0.252,0.656,0.252c0.297,0,0.58-0.098,0.85-0.293c0.199-0.148,0.33-0.33,0.393-0.545
				c0.043-0.141,0.064-0.408,0.064-0.803V505.298z"/>
			<path fill="#FFFFFF" d="M219.618,508.286h-1.646v-3.176c0-0.672-0.035-1.106-0.105-1.304s-0.185-0.351-0.343-0.46
				s-0.349-0.164-0.571-0.164c-0.285,0-0.541,0.078-0.768,0.234s-0.382,0.363-0.466,0.621s-0.126,0.734-0.126,1.43v2.818h-1.646
				v-6.223h1.529v0.914c0.543-0.703,1.227-1.055,2.051-1.055c0.363,0,0.695,0.065,0.996,0.196s0.528,0.298,0.683,0.501
				s0.262,0.434,0.322,0.691s0.091,0.627,0.091,1.107V508.286z"/>
			<path fill="#FFFFFF" d="M224.141,502.063v1.313h-1.125v2.508c0,0.508,0.011,0.804,0.032,0.888s0.07,0.153,0.146,0.208
				s0.169,0.082,0.278,0.082c0.152,0,0.373-0.053,0.662-0.158l0.141,1.277c-0.383,0.164-0.816,0.246-1.301,0.246
				c-0.297,0-0.564-0.05-0.803-0.149s-0.413-0.229-0.524-0.387s-0.188-0.372-0.231-0.642c-0.035-0.191-0.053-0.578-0.053-1.16
				v-2.713h-0.756v-1.313h0.756v-1.236l1.652-0.961v2.197H224.141z"/>
			<path fill="#FFFFFF" d="M224.903,505.087c0-0.547,0.135-1.076,0.404-1.588s0.651-0.902,1.146-1.172s1.046-0.404,1.655-0.404
				c0.941,0,1.713,0.306,2.314,0.917s0.902,1.384,0.902,2.317c0,0.941-0.304,1.722-0.911,2.341s-1.372,0.929-2.294,0.929
				c-0.57,0-1.114-0.129-1.632-0.387s-0.911-0.636-1.181-1.134S224.903,505.802,224.903,505.087z M226.591,505.175
				c0,0.617,0.146,1.09,0.439,1.418s0.654,0.492,1.084,0.492s0.79-0.164,1.081-0.492s0.437-0.805,0.437-1.43
				c0-0.609-0.146-1.078-0.437-1.406s-0.651-0.492-1.081-0.492s-0.791,0.164-1.084,0.492S226.591,504.557,226.591,505.175z"/>
			<path fill="#FFFFFF" d="M235.76,505.995v-1.646h3.234v1.646H235.76z"/>
			<path fill="#FFFFFF" d="M248.785,505.128l1.682,0.533c-0.258,0.938-0.686,1.634-1.285,2.089s-1.361,0.683-2.283,0.683
				c-1.141,0-2.078-0.39-2.813-1.169s-1.102-1.845-1.102-3.196c0-1.43,0.369-2.54,1.107-3.331s1.709-1.187,2.912-1.187
				c1.051,0,1.904,0.311,2.561,0.932c0.391,0.367,0.684,0.895,0.879,1.582l-1.717,0.41c-0.102-0.445-0.313-0.797-0.635-1.055
				s-0.715-0.387-1.176-0.387c-0.637,0-1.152,0.229-1.549,0.686s-0.596,1.197-0.596,2.221c0,1.086,0.195,1.859,0.586,2.32
				s0.898,0.691,1.523,0.691c0.461,0,0.857-0.146,1.189-0.439S248.641,505.757,248.785,505.128z"/>
			<path fill="#FFFFFF" d="M253.174,503.962l-1.494-0.27c0.168-0.602,0.457-1.047,0.867-1.336s1.02-0.434,1.828-0.434
				c0.734,0,1.281,0.087,1.641,0.261s0.613,0.395,0.76,0.662s0.219,0.759,0.219,1.474l-0.018,1.922c0,0.547,0.027,0.95,0.08,1.21
				s0.15,0.538,0.295,0.835h-1.629c-0.043-0.109-0.096-0.271-0.158-0.486c-0.027-0.098-0.047-0.162-0.059-0.193
				c-0.281,0.273-0.582,0.479-0.902,0.615s-0.662,0.205-1.025,0.205c-0.641,0-1.145-0.174-1.514-0.521s-0.555-0.787-0.555-1.318
				c0-0.352,0.084-0.665,0.252-0.94s0.404-0.486,0.707-0.633s0.738-0.274,1.309-0.384c0.77-0.145,1.303-0.279,1.6-0.404v-0.164
				c0-0.316-0.078-0.542-0.234-0.677s-0.451-0.202-0.885-0.202c-0.293,0-0.521,0.058-0.686,0.173S253.276,503.673,253.174,503.962z
				 M255.377,505.298c-0.211,0.07-0.545,0.154-1.002,0.252s-0.756,0.193-0.896,0.287c-0.215,0.152-0.322,0.346-0.322,0.58
				c0,0.23,0.086,0.43,0.258,0.598s0.391,0.252,0.656,0.252c0.297,0,0.58-0.098,0.85-0.293c0.199-0.148,0.33-0.33,0.393-0.545
				c0.043-0.141,0.064-0.408,0.064-0.803V505.298z"/>
			<path fill="#FFFFFF" d="M258.494,502.063h1.518v0.85c0.543-0.66,1.189-0.99,1.939-0.99c0.398,0,0.744,0.082,1.037,0.246
				s0.533,0.412,0.721,0.744c0.273-0.332,0.568-0.58,0.885-0.744s0.654-0.246,1.014-0.246c0.457,0,0.844,0.093,1.16,0.278
				s0.553,0.458,0.709,0.817c0.113,0.266,0.17,0.695,0.17,1.289v3.979H266v-3.557c0-0.617-0.057-1.016-0.17-1.195
				c-0.152-0.234-0.387-0.352-0.703-0.352c-0.23,0-0.447,0.07-0.65,0.211s-0.35,0.347-0.439,0.618s-0.135,0.7-0.135,1.286v2.988
				h-1.646v-3.41c0-0.605-0.029-0.996-0.088-1.172s-0.148-0.307-0.271-0.393s-0.291-0.129-0.502-0.129
				c-0.254,0-0.482,0.068-0.686,0.205s-0.348,0.334-0.436,0.592s-0.133,0.686-0.133,1.283v3.023h-1.646V502.063z"/>
			<path fill="#FFFFFF" d="M269.24,502.063h1.535v0.914c0.199-0.313,0.469-0.566,0.809-0.762s0.717-0.293,1.131-0.293
				c0.723,0,1.336,0.283,1.84,0.85s0.756,1.355,0.756,2.367c0,1.039-0.254,1.847-0.762,2.423s-1.123,0.864-1.846,0.864
				c-0.344,0-0.654-0.068-0.934-0.205s-0.574-0.371-0.883-0.703v3.135h-1.646V502.063z M270.869,505.069
				c0,0.699,0.139,1.216,0.416,1.55s0.615,0.501,1.014,0.501c0.383,0,0.701-0.153,0.955-0.46s0.381-0.81,0.381-1.509
				c0-0.652-0.131-1.137-0.393-1.453s-0.586-0.475-0.973-0.475c-0.402,0-0.736,0.155-1.002,0.466S270.869,504.46,270.869,505.069z"
				/>
			<path fill="#FFFFFF" d="M280.713,508.286v-0.932c-0.227,0.332-0.523,0.594-0.893,0.785s-0.76,0.287-1.17,0.287
				c-0.418,0-0.793-0.092-1.125-0.275s-0.572-0.441-0.721-0.773s-0.223-0.791-0.223-1.377v-3.938h1.646v2.859
				c0,0.875,0.031,1.411,0.092,1.608s0.17,0.354,0.33,0.469s0.363,0.173,0.609,0.173c0.281,0,0.533-0.077,0.756-0.231
				s0.375-0.346,0.457-0.574s0.123-0.788,0.123-1.679v-2.625h1.646v6.223H280.713z"/>
			<path fill="#FFFFFF" d="M283.367,506.51l1.652-0.252c0.07,0.32,0.213,0.563,0.428,0.729s0.516,0.249,0.902,0.249
				c0.426,0,0.746-0.078,0.961-0.234c0.145-0.109,0.217-0.256,0.217-0.439c0-0.125-0.039-0.229-0.117-0.311
				c-0.082-0.078-0.266-0.15-0.551-0.217c-1.328-0.293-2.17-0.561-2.525-0.803c-0.492-0.336-0.738-0.803-0.738-1.4
				c0-0.539,0.213-0.992,0.639-1.359s1.086-0.551,1.98-0.551c0.852,0,1.484,0.139,1.898,0.416s0.699,0.688,0.855,1.23l-1.553,0.287
				c-0.066-0.242-0.191-0.428-0.377-0.557s-0.451-0.193-0.795-0.193c-0.434,0-0.744,0.061-0.932,0.182
				c-0.125,0.086-0.188,0.197-0.188,0.334c0,0.117,0.055,0.217,0.164,0.299c0.148,0.109,0.662,0.264,1.539,0.463
				s1.488,0.443,1.836,0.732c0.344,0.293,0.516,0.701,0.516,1.225c0,0.57-0.238,1.061-0.715,1.471s-1.182,0.615-2.115,0.615
				c-0.848,0-1.518-0.172-2.012-0.516S283.52,507.1,283.367,506.51z"/>
			<path fill="#FFFFFF" d="M293.528,505.491l1.688-0.164c0.102,0.566,0.309,0.982,0.619,1.248s0.729,0.398,1.256,0.398
				c0.559,0,0.98-0.118,1.264-0.354s0.424-0.513,0.424-0.829c0-0.203-0.059-0.376-0.178-0.519s-0.328-0.267-0.625-0.372
				c-0.203-0.07-0.666-0.195-1.389-0.375c-0.93-0.23-1.582-0.514-1.957-0.85c-0.527-0.473-0.791-1.049-0.791-1.729
				c0-0.438,0.125-0.847,0.373-1.228s0.605-0.671,1.072-0.87s1.029-0.299,1.689-0.299c1.078,0,1.891,0.236,2.436,0.709
				s0.83,1.104,0.857,1.893l-1.734,0.076c-0.074-0.441-0.232-0.759-0.477-0.952s-0.611-0.29-1.1-0.29
				c-0.504,0-0.898,0.104-1.184,0.311c-0.184,0.133-0.275,0.311-0.275,0.533c0,0.203,0.086,0.377,0.258,0.521
				c0.219,0.184,0.75,0.375,1.594,0.574s1.469,0.405,1.873,0.618s0.721,0.504,0.949,0.873s0.342,0.825,0.342,1.368
				c0,0.492-0.137,0.953-0.41,1.383s-0.66,0.749-1.16,0.958s-1.123,0.313-1.869,0.313c-1.086,0-1.92-0.251-2.502-0.753
				S293.641,506.452,293.528,505.491z"/>
			<path fill="#FFFFFF" d="M305.563,506.305l1.641,0.275c-0.211,0.602-0.543,1.06-0.998,1.374s-1.025,0.472-1.709,0.472
				c-1.082,0-1.883-0.354-2.402-1.061c-0.41-0.566-0.615-1.281-0.615-2.145c0-1.031,0.27-1.839,0.809-2.423s1.221-0.876,2.045-0.876
				c0.926,0,1.656,0.306,2.191,0.917s0.791,1.548,0.768,2.81h-4.125c0.012,0.488,0.145,0.868,0.398,1.14s0.57,0.407,0.949,0.407
				c0.258,0,0.475-0.07,0.65-0.211S305.473,506.618,305.563,506.305z M305.656,504.641c-0.012-0.477-0.135-0.839-0.369-1.087
				s-0.52-0.372-0.855-0.372c-0.359,0-0.656,0.131-0.891,0.393s-0.35,0.617-0.346,1.066H305.656z"/>
			<path fill="#FFFFFF" d="M310.209,508.286h-1.646v-6.223h1.529v0.885c0.262-0.418,0.498-0.693,0.707-0.826
				s0.445-0.199,0.711-0.199c0.375,0,0.736,0.104,1.084,0.311l-0.51,1.436c-0.277-0.18-0.535-0.27-0.773-0.27
				c-0.23,0-0.426,0.063-0.586,0.19s-0.285,0.356-0.377,0.688s-0.139,1.027-0.139,2.086V508.286z"/>
			<path fill="#FFFFFF" d="M314.879,508.286h-1.646v-6.223h1.529v0.885c0.262-0.418,0.498-0.693,0.707-0.826
				s0.445-0.199,0.711-0.199c0.375,0,0.736,0.104,1.084,0.311l-0.51,1.436c-0.277-0.18-0.535-0.27-0.773-0.27
				c-0.23,0-0.426,0.063-0.586,0.19s-0.285,0.356-0.377,0.688s-0.139,1.027-0.139,2.086V508.286z"/>
			<path fill="#FFFFFF" d="M319.203,503.962l-1.494-0.27c0.168-0.602,0.457-1.047,0.867-1.336s1.02-0.434,1.828-0.434
				c0.734,0,1.281,0.087,1.641,0.261s0.613,0.395,0.76,0.662s0.219,0.759,0.219,1.474l-0.018,1.922c0,0.547,0.027,0.95,0.08,1.21
				s0.15,0.538,0.295,0.835h-1.629c-0.043-0.109-0.096-0.271-0.158-0.486c-0.027-0.098-0.047-0.162-0.059-0.193
				c-0.281,0.273-0.582,0.479-0.902,0.615s-0.662,0.205-1.025,0.205c-0.641,0-1.145-0.174-1.514-0.521s-0.555-0.787-0.555-1.318
				c0-0.352,0.084-0.665,0.252-0.94s0.404-0.486,0.707-0.633s0.738-0.274,1.309-0.384c0.77-0.145,1.303-0.279,1.6-0.404v-0.164
				c0-0.316-0.078-0.542-0.234-0.677s-0.451-0.202-0.885-0.202c-0.293,0-0.521,0.058-0.686,0.173S319.305,503.673,319.203,503.962z
				 M321.406,505.298c-0.211,0.07-0.545,0.154-1.002,0.252s-0.756,0.193-0.896,0.287c-0.215,0.152-0.322,0.346-0.322,0.58
				c0,0.23,0.086,0.43,0.258,0.598s0.391,0.252,0.656,0.252c0.297,0,0.58-0.098,0.85-0.293c0.199-0.148,0.33-0.33,0.393-0.545
				c0.043-0.141,0.064-0.408,0.064-0.803V505.298z"/>
		</g>
	</g>
</g>
</svg>
